<svg width="148" height="228" viewBox="0 0 148 228" fill="none" xmlns="http://www.w3.org/2000/svg">
<path d="M60 0H64V4.00003H60V0Z" fill="#008740"/>
<path d="M64 0H68V4.00003H64V0Z" fill="#008441"/>
<path d="M68.0022 0H72.0022V4.00003H68.0022V0Z" fill="#00844D"/>
<path d="M55.9978 4H59.9978V8.00003H55.9978V4Z" fill="#008440"/>
<path d="M60 4.00003H64V8.00003H60V4.00003Z" fill="#00BE67"/>
<path d="M64 4.00003H68V8.00003H64V4.00003Z" fill="#00BE69"/>
<path d="M68.0022 4.00003H72.0022V8.00003H68.0022V4.00003Z" fill="#00BB65"/>
<path d="M72.0022 0H76.0022V4.00003H72.0022V0Z" fill="#008740"/>
<path d="M56 8L60 8.00003L60 12H56V8Z" fill="#00BE65"/>
<path d="M84 8H88V12H84V8Z" fill="#00844D"/>
<path d="M60 8.00003H64V12H60L60 8.00003Z" fill="#00C36D"/>
<path d="M64 8.00003H68V12H64V8.00003Z" fill="#66D17A"/>
<path d="M72 8H76V12H72V8Z" fill="#00BE69"/>
<path d="M76.002 8H80.002V12H76.002V8Z" fill="#00C069"/>
<path d="M80 8H84V12H80V8Z" fill="#00C069"/>
<path d="M76 4H80L80 8H76L76 4Z" fill="#00C069"/>
<path d="M80 4H84L84 8H80L80 4Z" fill="#008441"/>
<path d="M76 0H80V4H76V0Z" fill="#008441"/>
<path d="M84 12H88V16H84V12Z" fill="#00BF69"/>
<path d="M52 8H56V12H52V8Z" fill="#00844D"/>
<path d="M55.9978 12H59.9978V16H55.9978V12Z" fill="#00C16B"/>
<path d="M60 12H64V16H60L60 12Z" fill="#6DD27B"/>
<path d="M64 12H68V16H64V12Z" fill="#79D47D"/>
<path d="M68.0022 12H72.0022V16H68.0022V12Z" fill="#79D47D"/>
<path d="M68 8.00003L72 8V12L68 12V8.00003Z" fill="#79D47D"/>
<path d="M72 12H76V16H72V12Z" fill="#79D47D"/>
<path d="M76.002 12H80.002V16H76.002V12Z" fill="#00C06B"/>
<path d="M80 12H84V16H80V12Z" fill="#00BD68"/>
<path d="M72.0022 4.00003H76.0022L76.002 8L72.0022 8.00003V4.00003Z" fill="#00BD69"/>
<path d="M88 12L92 12V16H88V12Z" fill="#008441"/>
<path d="M48 12L52 12L52 16H48V12Z" fill="#008A44"/>
<path d="M52 12H56L56 16H52L52 12Z" fill="#00BE68"/>
<path d="M55.9978 16H59.9978V20.0003H55.9978V16Z" fill="#5DCF79"/>
<path d="M60 16H64V20.0003H60V16Z" fill="#79D47D"/>
<path d="M64 16H68V20.0003H64V16Z" fill="#79D47D"/>
<path d="M68.0022 16H72.0022V20.0003H68.0022V16Z" fill="#79D47D"/>
<path d="M72.0022 16L76.002 16L76.0022 20.0003H72.0022V16Z" fill="#79D47D"/>
<path d="M76 16H80L80 20.0003H76L76 16Z" fill="#75D37E"/>
<path d="M80 16H84L84 20L80 20.0003L80 16Z" fill="#79D47D"/>
<path d="M84 16H88V20.0003L84 20L84 16Z" fill="#00C06A"/>
<path d="M88 16H92V20.0003H88V16Z" fill="#00BD69"/>
<path d="M92 16L96 16V20L92 20.0003V16Z" fill="#00853F"/>
<path d="M44 16.0003L48 16L48 20.0003H44V16.0003Z" fill="#008441"/>
<path d="M48 16H52V20.0003H48L48 16Z" fill="#00BE67"/>
<path d="M52 20.0003L56 20V24H52L52 20.0003Z" fill="#4DCC76"/>
<path d="M55.9978 20.0003H59.9978V24H55.9978V20.0003Z" fill="#79D47D"/>
<path d="M60 20.0003H64V24H60V20.0003Z" fill="#79D47D"/>
<path d="M64 20.0003H68V24H64V20.0003Z" fill="#79D47D"/>
<path d="M68.0022 20.0003H72.0022V24H68.0022V20.0003Z" fill="#79D47D"/>
<path d="M72.0022 20.0003H76.0022V24H72.0022V20.0003Z" fill="#79D47D"/>
<path d="M76 20.0003H80V24H76V20.0003Z" fill="#79D47D"/>
<path d="M80 20.0003L84 20L84 24H80V20.0003Z" fill="#79D47D"/>
<path d="M84 20L88 20.0003L88 24H84L84 20Z" fill="#22C670"/>
<path d="M88 20.0003H92L92 24H88L88 20.0003Z" fill="#00BD69"/>
<path d="M92 20.0003L96 20V24L92 24L92 20.0003Z" fill="#00BD69"/>
<path d="M96 20L100 20V24H96V20Z" fill="#008540"/>
<path d="M40 24.0003H44V28.0003H40V24.0003Z" fill="#008441"/>
<path d="M44 20.0003H48V24L44 24.0003L44 20.0003Z" fill="#00BD68"/>
<path d="M40 28.0003H44V32.0003H40V28.0003Z" fill="#00BD68"/>
<path d="M48 24H52L52 28.0003H48L48 24Z" fill="#25C671"/>
<path d="M52 24H56V28.0003H52L52 24Z" fill="#79D47D"/>
<path d="M55.9978 24H59.9978V28.0003H55.9978V24Z" fill="#79D47D"/>
<path d="M60 24H64V28.0003H60V24Z" fill="#79D47D"/>
<path d="M64 24H68V28.0003H64V24Z" fill="#79D47D"/>
<path d="M68.0022 24H72.0022V28.0003H68.0022V24Z" fill="#79D47D"/>
<path d="M72.0022 24H76.0022V28.0003H72.0022V24Z" fill="#79D47D"/>
<path d="M76 24H80V28.0003H76V24Z" fill="#79D47D"/>
<path d="M80 24H84V28.0003H80V24Z" fill="#79D47D"/>
<path d="M84 24H88V28.0003H84V24Z" fill="#79D47D"/>
<path d="M88 24H92V28.0003H88V24Z" fill="#00C26D"/>
<path d="M92 24L96 24L96 28.0003H92V24Z" fill="#00BD69"/>
<path d="M96 24H100L100 28.0003H96L96 24Z" fill="#008441"/>
<path d="M40 20L44 20.0003L44 24.0003H40V20Z" fill="#008441"/>
<path d="M44 28.0003H48L48 32.0003H44V28.0003Z" fill="#00BF69"/>
<path d="M44 24.0003L48 24L48 28.0003H44V24.0003Z" fill="#00BF69"/>
<path d="M48 28.0003H52V32.0003H48L48 28.0003Z" fill="#79D47D"/>
<path d="M52 28.0003H56V32.0003H52V28.0003Z" fill="#79D47D"/>
<path d="M55.9978 28.0003H59.9978V32.0003H55.9978V28.0003Z" fill="#79D47D"/>
<path d="M60 28.0003H64V32.0003H60V28.0003Z" fill="#79D47D"/>
<path d="M64 28.0003H68V32.0003H64V28.0003Z" fill="#79D47D"/>
<path d="M68.0022 28.0003H72.0022V32.0003H68.0022V28.0003Z" fill="#79D47D"/>
<path d="M72.0022 28.0003H76.0022V32.0003H72.0022V28.0003Z" fill="#79D47D"/>
<path d="M76 28.0003H80V32.0003H76V28.0003Z" fill="#79D47D"/>
<path d="M80 28.0003H84V32.0003H80V28.0003Z" fill="#79D47D"/>
<path d="M84 28.0003H88V32.0003H84V28.0003Z" fill="#79D47D"/>
<path d="M88 28.0003H92V32.0003H88V28.0003Z" fill="#79D47D"/>
<path d="M92 28.0003H96V32.0003H92V28.0003Z" fill="#00C069"/>
<path d="M96 28.0003H100L100 32L96 32.0003V28.0003Z" fill="#00BD69"/>
<path d="M100 28.0003L104 28V32H100L100 28.0003Z" fill="#008741"/>
<path d="M36 32.0003L40 32.0003L40 36.0003H36V32.0003Z" fill="#008248"/>
<path d="M36 28.0003L40 28.0003V32.0003L36 32.0003V28.0003Z" fill="#008248"/>
<path d="M40 32.0003H44V36.0003H40L40 32.0003Z" fill="#00BE69"/>
<path d="M44 32.0003H48V36.0003H44V32.0003Z" fill="#6FD27C"/>
<path d="M48 32.0003H52V36.0003H48V32.0003Z" fill="#79D47D"/>
<path d="M52 32.0003H56V36.0003H52V32.0003Z" fill="#79D47D"/>
<path d="M55.9978 32.0003H59.9978V36.0003H55.9978V32.0003Z" fill="#79D47D"/>
<path d="M60 32.0003H64V36.0003H60V32.0003Z" fill="#79D47D"/>
<path d="M64 32.0003H68V36.0003H64V32.0003Z" fill="#79D47D"/>
<path d="M68.0022 32.0003H72.0022V36.0003H68.0022V32.0003Z" fill="#79D47D"/>
<path d="M72.0022 32.0003H76.0022V36.0003H72.0022V32.0003Z" fill="#79D47D"/>
<path d="M76 32.0003H80V36.0003H76V32.0003Z" fill="#79D47D"/>
<path d="M80 32.0003H84V36.0003H80V32.0003Z" fill="#79D47D"/>
<path d="M84 32.0003H88V36.0003H84V32.0003Z" fill="#79D47D"/>
<path d="M88 32.0003H92V36.0003H88V32.0003Z" fill="#79D47D"/>
<path d="M92 32.0003H96V36.0003H92V32.0003Z" fill="#79D47D"/>
<path d="M96 32.0003L100 32L100 36.0003H96V32.0003Z" fill="#00BD69"/>
<path d="M100.002 32.0003H104.002V36.0003H100.002V32.0003Z" fill="#008741"/>
<path d="M32 36.0003L36 36.0003L36 40.0003H32V36.0003Z" fill="#00844D"/>
<path d="M36 36.0003H40V40.0003H36L36 36.0003Z" fill="#00BE69"/>
<path d="M40 36.0003H44V40.0003H40V36.0003Z" fill="#00C069"/>
<path d="M44 36.0003H48V40.0003H44V36.0003Z" fill="#79D47D"/>
<path d="M48 36.0003H52V40.0003H48V36.0003Z" fill="#79D47D"/>
<path d="M52 36.0003H56V40.0003H52V36.0003Z" fill="#79D47D"/>
<path d="M55.9978 36.0003H59.9978V40.0003H55.9978V36.0003Z" fill="#79D47D"/>
<path d="M60 36.0003H64V40.0003H60V36.0003Z" fill="#79D47D"/>
<path d="M64 36.0003H68V40.0003H64V36.0003Z" fill="#79D47D"/>
<path d="M68.0022 36.0003H72.0022V40.0003H68.0022V36.0003Z" fill="#79D47D"/>
<path d="M72.0022 36.0003H76.0022V40.0003H72.0022V36.0003Z" fill="#79D47D"/>
<path d="M76 36.0003H80V40.0003H76V36.0003Z" fill="#79D47D"/>
<path d="M80 36.0003H84V40.0003H80V36.0003Z" fill="#79D47D"/>
<path d="M84 36.0003H88V40.0003H84V36.0003Z" fill="#79D47D"/>
<path d="M88 36.0003H92V40.0003H88V36.0003Z" fill="#79D47D"/>
<path d="M92 36.0003H96V40.0003H92V36.0003Z" fill="#79D47D"/>
<path d="M96 36.0003H100V40.0003H96V36.0003Z" fill="#4ACC75"/>
<path d="M100.002 36.0003H104.002V40.0003H100.002V36.0003Z" fill="#00BD69"/>
<path d="M104 36.0003H108V40.0003H104V36.0003Z" fill="#008441"/>
<path d="M32 40.0003H36V44.0006H32V40.0003Z" fill="#00844D"/>
<path d="M36 40.0003H40V44.0006H36V40.0003Z" fill="#00BE68"/>
<path d="M40 40.0003H44V44.0006H40V40.0003Z" fill="#6FD27C"/>
<path d="M44 40.0003H48V44.0006H44V40.0003Z" fill="#79D47D"/>
<path d="M48 40.0003H52V44.0006H48V40.0003Z" fill="#7AD580"/>
<path d="M52 40.0003H56V44.0006H52V40.0003Z" fill="#79D47D"/>
<path d="M55.9978 40.0003H59.9978V44.0006H55.9978V40.0003Z" fill="#79D47D"/>
<path d="M60 40.0003H64V44.0006H60V40.0003Z" fill="#79D47D"/>
<path d="M64 40.0003H68V44.0006H64V40.0003Z" fill="#79D47D"/>
<path d="M68.0022 40.0003H72.0022V44.0006H68.0022V40.0003Z" fill="#79D47D"/>
<path d="M72.0022 40.0003H76.0022V44.0006H72.0022V40.0003Z" fill="#79D47D"/>
<path d="M76 40.0003H80V44.0006H76V40.0003Z" fill="#79D47D"/>
<path d="M80 40.0003H84V44.0006H80V40.0003Z" fill="#79D47D"/>
<path d="M84 40.0003H88V44.0006H84V40.0003Z" fill="#79D47D"/>
<path d="M88 40.0003H92V44.0006H88V40.0003Z" fill="#79D47D"/>
<path d="M92 40.0003H96V44.0006H92V40.0003Z" fill="#79D47D"/>
<path d="M96 40.0003H100V44.0006H96V40.0003Z" fill="#79D47D"/>
<path d="M100.002 40.0003H104.002V44.0006H100.002V40.0003Z" fill="#00BD69"/>
<path d="M104 40.0003H108V44.0006H104V40.0003Z" fill="#007D42"/>
<path d="M116 80.0003H120V84.0003H116V80.0003Z" fill="#007D42"/>
<path d="M28 44L32 44.0006L32 48H28V44Z" fill="#00844D"/>
<path d="M32 44.0006H36V48H32L32 44.0006Z" fill="#00BD69"/>
<path d="M36 44.0006H40V48H36V44.0006Z" fill="#00C069"/>
<path d="M40 44.0006H44V48H40V44.0006Z" fill="#79D47D"/>
<path d="M44 44.0006H48V48H44V44.0006Z" fill="#79D47D"/>
<path d="M48 44.0006H52V48H48V44.0006Z" fill="#79D47D"/>
<path d="M52 44.0006H56V48H52V44.0006Z" fill="#75D37D"/>
<path d="M55.9978 44.0006H59.9978V48H55.9978V44.0006Z" fill="#66D17A"/>
<path d="M60 44.0006H64V48H60V44.0006Z" fill="#74D37B"/>
<path d="M64 44.0006H68V48H64V44.0006Z" fill="#79D47D"/>
<path d="M68.0022 44.0006H72.0022V48H68.0022V44.0006Z" fill="#79D47D"/>
<path d="M72.0022 44.0006H76.0022V48H72.0022V44.0006Z" fill="#79D47D"/>
<path d="M76 44.0006H80V48H76V44.0006Z" fill="#79D47D"/>
<path d="M80 44.0006H84V48H80V44.0006Z" fill="#79D47D"/>
<path d="M84 44.0006H88V48H84V44.0006Z" fill="#79D47D"/>
<path d="M88 44.0006H92V48H88V44.0006Z" fill="#79D47D"/>
<path d="M92 44.0006H96V48H92V44.0006Z" fill="#79D47D"/>
<path d="M96 44.0006H100V48H96V44.0006Z" fill="#79D47D"/>
<path d="M100.002 44.0006H104.002V48H100.002V44.0006Z" fill="#67D17B"/>
<path d="M104 48.0003H108V52.0003H104V48.0003Z" fill="#00BD69"/>
<path d="M104 44.0006H108V48.0003H104V44.0006Z" fill="#00BD69"/>
<path d="M108 44.0006L112 44V48L108 48.0003V44.0006Z" fill="#00844D"/>
<path d="M28 48H32V52.0006H28V48Z" fill="#00844D"/>
<path d="M32 48H36V52.0006H32V48Z" fill="#00BD68"/>
<path d="M36 48H40V52.0006H36V48Z" fill="#00C36B"/>
<path d="M40 48H44V52.0006H40V48Z" fill="#79D47D"/>
<path d="M44 48H48V52.0006H44V48Z" fill="#79D47D"/>
<path d="M48 48H52V52.0006H48V48Z" fill="#79D47D"/>
<path d="M52 48H56V52.0006H52V48Z" fill="#6BD07B"/>
<path d="M55.9978 48H59.9978V52.0006H55.9978V48Z" fill="#6DD17C"/>
<path d="M60 48H64V52.0006H60V48Z" fill="#00C16B"/>
<path d="M64 48H68V52.0006H64V48Z" fill="#00C069"/>
<path d="M68.0022 48H72.0022V52.0006H68.0022V48Z" fill="#00C16B"/>
<path d="M72.0022 48H76.0022V52.0006H72.0022V48Z" fill="#6FD37C"/>
<path d="M76 48H80V52.0006H76V48Z" fill="#79D47D"/>
<path d="M80 48H84V52.0006H80V48Z" fill="#79D47D"/>
<path d="M84 48H88V52.0006H84V48Z" fill="#79D47D"/>
<path d="M88 48H92V52.0006H88V48Z" fill="#79D47D"/>
<path d="M92 48H96V52.0006H92V48Z" fill="#79D47D"/>
<path d="M96 48H100V52.0006H96V48Z" fill="#72D27C"/>
<path d="M100.002 48H104.002V52.0006H100.002V48Z" fill="#00C06B"/>
<path d="M112.002 56.0003H116.002V60.0003H112.002V56.0003Z" fill="#00844C"/>
<path d="M116 72.0003H120V76.0003H116V72.0003Z" fill="#00844C"/>
<path d="M108 48.0003L112 48V52.0006L108 52.0003V48.0003Z" fill="#00844C"/>
<path d="M28 52.0006H32V56.0006H28V52.0006Z" fill="#00BE6A"/>
<path d="M32 52.0006H36V56.0006H32V52.0006Z" fill="#00BD68"/>
<path d="M36 52.0006H40V56.0006H36V52.0006Z" fill="#2AC670"/>
<path d="M40 52.0006H44V56.0006H40V52.0006Z" fill="#78D37D"/>
<path d="M44 52.0006H48V56.0006H44V52.0006Z" fill="#79D47D"/>
<path d="M48 52.0006H52V56.0006H48V52.0006Z" fill="#79D47D"/>
<path d="M52 52.0006H56V56.0006H52V52.0006Z" fill="#5FCF78"/>
<path d="M55.9978 52.0006H59.9978V56.0006H55.9978V52.0006Z" fill="#00C069"/>
<path d="M60 52.0006H64V56.0006H60V52.0006Z" fill="#79D47D"/>
<path d="M64 52.0006H68V56.0006H64V52.0006Z" fill="#00C16B"/>
<path d="M68.0022 52.0006H72.0022V56.0006H68.0022V52.0006Z" fill="#00C36D"/>
<path d="M72.0022 52.0006H76.0022V56.0006H72.0022V52.0006Z" fill="#79D47D"/>
<path d="M76 52.0006H80V56.0006H76V52.0006Z" fill="#79D47D"/>
<path d="M80 52.0006H84V56.0006H80V52.0006Z" fill="#79D47D"/>
<path d="M84 52.0006H88V56.0006H84V52.0006Z" fill="#79D47D"/>
<path d="M88 52.0006H92V56.0006H88V52.0006Z" fill="#79D47D"/>
<path d="M92 52.0006H96V56.0006H92V52.0006Z" fill="#79D47D"/>
<path d="M96 52.0006H100V56.0006H96V52.0006Z" fill="#79D47D"/>
<path d="M100.002 52.0006H104.002V56H100.002V52.0006Z" fill="#79D47D"/>
<path d="M104 52.0003H108V56H104V52.0003Z" fill="#00C069"/>
<path d="M108 52.0003L112 52.0006V56H108V52.0003Z" fill="#008537"/>
<path d="M24 56.0005L28 56.0006L28 60.0006H24V56.0005Z" fill="#00844D"/>
<path d="M28 56.0006H32V60.0006H28L28 56.0006Z" fill="#00BD68"/>
<path d="M32 56.0006H36V60.0006H32V56.0006Z" fill="#00BE69"/>
<path d="M36 56.0006H40V60.0006H36V56.0006Z" fill="#00C069"/>
<path d="M40 56.0006H44V60.0006H40V56.0006Z" fill="#64D07A"/>
<path d="M44 56.0006H48V60.0006H44V56.0006Z" fill="#79D47D"/>
<path d="M48 56.0006H52V60.0006H48V56.0006Z" fill="#79D47D"/>
<path d="M52 56.0006H56V60.0006H52V56.0006Z" fill="#3CCA73"/>
<path d="M55.9978 56.0006H59.9978V60.0006H55.9978V56.0006Z" fill="#49CC75"/>
<path d="M60 56.0006H64V60.0006H60V56.0006Z" fill="#79D47D"/>
<path d="M64 56.0006H68V60.0006H64V56.0006Z" fill="#79D47D"/>
<path d="M68.0022 56.0006H72.0022V60.0006H68.0022V56.0006Z" fill="#79D47D"/>
<path d="M72.0022 56.0006H76.0022V60.0006H72.0022V56.0006Z" fill="#79D47D"/>
<path d="M76 56.0006H80V60.0006H76V56.0006Z" fill="#79D47D"/>
<path d="M80 56.0006H84V60.0006H80V56.0006Z" fill="#79D47D"/>
<path d="M84 56.0006H88V60.0006H84V56.0006Z" fill="#79D47D"/>
<path d="M88 56.0006H92V60.0006H88V56.0006Z" fill="#79D47D"/>
<path d="M92 56.0006H96V60.0006H92V56.0006Z" fill="#79D47D"/>
<path d="M96 56.0006H100V60.0006H96V56.0006Z" fill="#79D47D"/>
<path d="M108 56H112V60.0003H108L108 56Z" fill="#32C872"/>
<path d="M104 56H108L108 60.0003L104 60.0006V56Z" fill="#00BE69"/>
<path d="M24 60.0006H28V64.0003H24V60.0006Z" fill="#00844D"/>
<path d="M28 60.0006H32V64.0003H28V60.0006Z" fill="#00BD68"/>
<path d="M32 60.0006H36V64.0003H32V60.0006Z" fill="#00844D"/>
<path d="M24 52L28 52.0006V56.0006L24 56.0005V52Z" fill="#00844D"/>
<path d="M19.9978 64.0003H23.9978V68.0003H19.9978V64.0003Z" fill="#00844D"/>
<path d="M24 68.0003H28V72.0003H24V68.0003Z" fill="#00844D"/>
<path d="M36 60.0006H40V64.0003H36V60.0006Z" fill="#00C06A"/>
<path d="M40 60.0006H44V64.0003H40V60.0006Z" fill="#73D27C"/>
<path d="M44 60.0006H48V64.0003H44V60.0006Z" fill="#79D47D"/>
<path d="M48 60.0006H52V64.0003H48V60.0006Z" fill="#79D47D"/>
<path d="M52 60.0006H56V64.0003H52V60.0006Z" fill="#79D47D"/>
<path d="M55.9978 60.0006H59.9978V64.0003H55.9978V60.0006Z" fill="#79D47D"/>
<path d="M60 60.0006H64V64.0003H60V60.0006Z" fill="#79D47D"/>
<path d="M64 60.0006H68V64.0003H64V60.0006Z" fill="#79D47D"/>
<path d="M68.0022 60.0006H72.0022V64.0003H68.0022V60.0006Z" fill="#79D47D"/>
<path d="M72.0022 60.0006H76.0022V64.0003H72.0022V60.0006Z" fill="#79D47D"/>
<path d="M76 60.0006H80V64.0003H76V60.0006Z" fill="#79D47D"/>
<path d="M80 60.0006H84V64.0003H80V60.0006Z" fill="#79D47D"/>
<path d="M84 60.0006H88V64.0003H84V60.0006Z" fill="#79D47D"/>
<path d="M88 60.0006H92V64.0003H88V60.0006Z" fill="#79D47D"/>
<path d="M92 60.0006H96V64.0003H92V60.0006Z" fill="#79D47D"/>
<path d="M96 60.0006H100V64.0003H96V60.0006Z" fill="#79D47D"/>
<path d="M100.002 60.0003H104.002V64.0003H100.002V60.0003Z" fill="#79D47D"/>
<path d="M100.002 56H104.002V60.0003H100.002V56Z" fill="#79D47D"/>
<path d="M104 60.0006L108 60.0003L108 64.0003H104V60.0006Z" fill="#00BD69"/>
<path d="M112.002 60.0003H116.002V64.0003H112.002V60.0003Z" fill="#007C34"/>
<path d="M24 64.0003H28V68.0003H24V64.0003Z" fill="#00CC80"/>
<path d="M28 64.0003H32V68.0006L28 68.0003V64.0003Z" fill="#00C067"/>
<path d="M32 64.0003H36V68.0006H32V64.0003Z" fill="#00BE69"/>
<path d="M36 64.0003H40V68.0006H36V64.0003Z" fill="#00C36F"/>
<path d="M40 64.0003H44V68.0006H40V64.0003Z" fill="#79D47D"/>
<path d="M44 64.0003H48V68.0006H44V64.0003Z" fill="#79D47D"/>
<path d="M48 64.0003H52V68.0006H48V64.0003Z" fill="#79D47D"/>
<path d="M52 64.0003H56V68.0006H52V64.0003Z" fill="#79D47D"/>
<path d="M55.9978 64.0003H59.9978V68.0006H55.9978V64.0003Z" fill="#79D47D"/>
<path d="M60 64.0003H64V68.0006H60V64.0003Z" fill="#79D47D"/>
<path d="M64 64.0003H68V68.0006H64V64.0003Z" fill="#79D47D"/>
<path d="M68.0022 64.0003H72.0022V68.0006H68.0022V64.0003Z" fill="#79D47D"/>
<path d="M72.0022 64.0003H76.0022V68.0006H72.0022V64.0003Z" fill="#79D47D"/>
<path d="M76 64.0003H80V68.0006H76V64.0003Z" fill="#79D47D"/>
<path d="M80 64.0003H84V68.0006H80V64.0003Z" fill="#79D47D"/>
<path d="M84 64.0003H88V68.0006H84V64.0003Z" fill="#79D47D"/>
<path d="M88 64.0003H92V68.0006H88V64.0003Z" fill="#79D47D"/>
<path d="M92 64.0003H96V68.0006H92V64.0003Z" fill="#79D47D"/>
<path d="M96 64.0003H100V68.0006H96V64.0003Z" fill="#79D47D"/>
<path d="M100.002 64.0003H104.002V68.0006H100.002V64.0003Z" fill="#79D47D"/>
<path d="M104 64.0003H108V68.0006H104V64.0003Z" fill="#00C069"/>
<path d="M108 64.0003L112 64.0005V68.0006H108V64.0003Z" fill="#00BD69"/>
<path d="M108 60.0003H112V64.0005L108 64.0003L108 60.0003Z" fill="#00BD69"/>
<path d="M112.002 64.0003H116.002V68.0003H112.002V64.0003Z" fill="#00BD69"/>
<path d="M116 64.0003H120V68.0003H116V64.0003Z" fill="#008540"/>
<path d="M28 68.0003L32 68.0006V72.0006L28 72.0003V68.0003Z" fill="#008540"/>
<path d="M32 68.0006H36V72.0006H32V68.0006Z" fill="#00BF69"/>
<path d="M36 68.0006H40V72.0006H36V68.0006Z" fill="#6DD17B"/>
<path d="M40 68.0006H44V72.0006H40V68.0006Z" fill="#79D47D"/>
<path d="M44 68.0006H48V72.0006H44V68.0006Z" fill="#79D47D"/>
<path d="M48 68.0006H52V72.0006H48V68.0006Z" fill="#79D47D"/>
<path d="M52 68.0006H56V72.0006H52V68.0006Z" fill="#79D47D"/>
<path d="M55.9978 68.0006H59.9978V72.0006H55.9978V68.0006Z" fill="#79D47D"/>
<path d="M60 68.0006H64V72.0006H60V68.0006Z" fill="#79D47D"/>
<path d="M64 68.0006H68V72.0006H64V68.0006Z" fill="#79D47D"/>
<path d="M68.0022 68.0006H72.0022V72.0006H68.0022V68.0006Z" fill="#79D47D"/>
<path d="M72.0022 68.0006H76.0022V72.0006H72.0022V68.0006Z" fill="#79D47D"/>
<path d="M76 68.0006H80V72.0006H76V68.0006Z" fill="#79D47D"/>
<path d="M80 68.0006H84V72.0006H80V68.0006Z" fill="#79D47D"/>
<path d="M84 68.0006H88V72.0006H84V68.0006Z" fill="#79D47D"/>
<path d="M88 68.0006H92V72.0006H88V68.0006Z" fill="#79D47D"/>
<path d="M92 68.0006H96V72.0006H92V68.0006Z" fill="#79D47D"/>
<path d="M96 68.0006H100V72.0006H96V68.0006Z" fill="#79D47D"/>
<path d="M100.002 68.0006H104.002V72.0006H100.002V68.0006Z" fill="#79D47D"/>
<path d="M104 68.0006H108V72.0006H104V68.0006Z" fill="#76D47C"/>
<path d="M108 68.0006H112V72.0006H108V68.0006Z" fill="#00BD68"/>
<path d="M112.002 68.0003H116.002V72.0006H112.002V68.0003Z" fill="#008441"/>
<path d="M28 72.0003L32 72.0006V76.0006H28L28 72.0003Z" fill="#008441"/>
<path d="M32 72.0006H36V76.0006H32V72.0006Z" fill="#00C46D"/>
<path d="M36 72.0006H40V76.0006H36V72.0006Z" fill="#79D47D"/>
<path d="M40 72.0006H44V76.0006H40V72.0006Z" fill="#79D47D"/>
<path d="M44 72.0006H48V76.0006H44V72.0006Z" fill="#79D47D"/>
<path d="M48 72.0006H52V76.0006H48V72.0006Z" fill="#79D47D"/>
<path d="M52 72.0006H56V76.0006H52V72.0006Z" fill="#79D47D"/>
<path d="M55.9978 72.0006H59.9978V76.0006H55.9978V72.0006Z" fill="#79D47D"/>
<path d="M60 72.0006H64V76.0006H60V72.0006Z" fill="#79D47D"/>
<path d="M64 72.0006H68V76.0006H64V72.0006Z" fill="#79D47D"/>
<path d="M68.0022 72.0006H72.0022V76.0006H68.0022V72.0006Z" fill="#79D47D"/>
<path d="M72.0022 72.0006H76.0022V76.0006H72.0022V72.0006Z" fill="#79D47D"/>
<path d="M76 72.0006H80V76.0006H76V72.0006Z" fill="#79D47D"/>
<path d="M80 72.0006H84V76.0006H80V72.0006Z" fill="#79D47D"/>
<path d="M84 72.0006H88V76.0006H84V72.0006Z" fill="#79D47D"/>
<path d="M88 72.0006H92V76.0006H88V72.0006Z" fill="#79D47D"/>
<path d="M92 72.0006H96V76.0006H92V72.0006Z" fill="#79D47D"/>
<path d="M96 72.0006H100V76.0006H96V72.0006Z" fill="#79D47D"/>
<path d="M100.002 72.0006H104.002V76.0006H100.002V72.0006Z" fill="#79D47D"/>
<path d="M104 72.0006H108V76.0006H104V72.0006Z" fill="#73D37D"/>
<path d="M108 72.0006H112V76.0006H108V72.0006Z" fill="#00BE69"/>
<path d="M112.002 72.0006H116.002V76.0006H112.002V72.0006Z" fill="#00BE69"/>
<path d="M24 76.0005L28 76.0006L28 80.0006H24V76.0005Z" fill="#008441"/>
<path d="M28 76.0006H32V80.0006H28L28 76.0006Z" fill="#00C069"/>
<path d="M32 76.0006H36V80.0006H32V76.0006Z" fill="#65D17A"/>
<path d="M36 76.0006H40V80.0006H36V76.0006Z" fill="#79D47D"/>
<path d="M40 76.0006H44V80.0006H40V76.0006Z" fill="#79D47D"/>
<path d="M44 76.0006H48V80.0006H44V76.0006Z" fill="#79D47D"/>
<path d="M48 76.0006H52V80.0006H48V76.0006Z" fill="#79D47D"/>
<path d="M52 76.0006H56V80.0006H52V76.0006Z" fill="#79D47D"/>
<path d="M55.9978 76.0006H59.9978V80.0006H55.9978V76.0006Z" fill="#79D47D"/>
<path d="M60 76.0006H64V80.0006H60V76.0006Z" fill="#79D47D"/>
<path d="M64 76.0006H68V80.0006H64V76.0006Z" fill="#79D47D"/>
<path d="M68.0022 76.0006H72.0022V80.0006H68.0022V76.0006Z" fill="#79D47D"/>
<path d="M72.0022 76.0006H76.0022V80.0006H72.0022V76.0006Z" fill="#79D47D"/>
<path d="M76 76.0006H80V80.0006H76V76.0006Z" fill="#79D47D"/>
<path d="M80 76.0006H84V80.0006H80V76.0006Z" fill="#79D47D"/>
<path d="M84 76.0006H88V80.0006H84V76.0006Z" fill="#79D47D"/>
<path d="M88 76.0006H92V80.0006H88V76.0006Z" fill="#00C56F"/>
<path d="M92 76.0006H96V80.0006H92V76.0006Z" fill="#2BC871"/>
<path d="M96 76.0006H100V80.0006H96V76.0006Z" fill="#54CE77"/>
<path d="M100.002 76.0006H104.002V80.0006H100.002V76.0006Z" fill="#79D47D"/>
<path d="M104 76.0006H108V80.0006H104V76.0006Z" fill="#5BCF78"/>
<path d="M112.002 76.0006H116.002V80.0003H112.002V76.0006Z" fill="#00BD69"/>
<path d="M120 80.0003H124V84.0003H120V80.0003Z" fill="#008441"/>
<path d="M116 76.0003H120L120 80.0003H116V76.0003Z" fill="#008542"/>
<path d="M128 76.0005H132V80.0006H128V76.0005Z" fill="#2C2C2C"/>
<path d="M24 80.0006H28V84.0003H24V80.0006Z" fill="#008441"/>
<path d="M28 80.0006H32V84.0003H28V80.0006Z" fill="#00C06A"/>
<path d="M32 80.0006H36V84.0003H32V80.0006Z" fill="#7AD580"/>
<path d="M36 80.0006H40V84.0003H36V80.0006Z" fill="#79D47D"/>
<path d="M40 80.0006H44V84.0003H40V80.0006Z" fill="#79D47D"/>
<path d="M44 80.0006H48V84.0003H44V80.0006Z" fill="#79D47D"/>
<path d="M48 80.0006H52V84.0003H48V80.0006Z" fill="#79D47D"/>
<path d="M52 80.0006H56V84.0003H52V80.0006Z" fill="#79D47D"/>
<path d="M55.9978 80.0006H59.9978V84.0003H55.9978V80.0006Z" fill="#79D47D"/>
<path d="M60 80.0006H64V84.0003H60V80.0006Z" fill="#79D47D"/>
<path d="M64 80.0006H68V84.0003H64V80.0006Z" fill="#79D47D"/>
<path d="M68.0022 80.0006H72.0022V84.0003H68.0022V80.0006Z" fill="#79D47D"/>
<path d="M72.0022 80.0006H76.0022V84.0003H72.0022V80.0006Z" fill="#79D47D"/>
<path d="M76 80.0006H80V84.0003H76V80.0006Z" fill="#79D47D"/>
<path d="M80 80.0006H84V84.0003H80V80.0006Z" fill="#79D47D"/>
<path d="M84 80.0006H88V84.0003H84V80.0006Z" fill="#50CC76"/>
<path d="M88 80.0006H92V84.0003H88V80.0006Z" fill="#4DCC76"/>
<path d="M92 80.0006H96V84.0003H92V80.0006Z" fill="#11C56E"/>
<path d="M96 80.0006H100V84.0003H96V80.0006Z" fill="#65D17A"/>
<path d="M100.002 80.0006H104.002V84.0003H100.002V80.0006Z" fill="#79D47D"/>
<path d="M104 80.0006H108V84.0003H104V80.0006Z" fill="#79D47D"/>
<path d="M108 80.0006L112 80.0003V84.0003H108V80.0006Z" fill="#00BF6A"/>
<path d="M108 76.0006H112V80.0003L108 80.0006V76.0006Z" fill="#00BF6A"/>
<path d="M112.002 80.0003H116.002V84.0003H112.002V80.0003Z" fill="#00BD69"/>
<path d="M124 80.0003L128 80.0006L128 84.0003H124V80.0003Z" fill="#2C2C2C"/>
<path d="M128 80.0006H132V84.0003H128L128 80.0006Z" fill="#2C2C2C"/>
<path d="M24 84.0003H28V88.0009H24V84.0003Z" fill="#00BA66"/>
<path d="M28 84.0003H32V88.0009H28V84.0003Z" fill="#00C26B"/>
<path d="M32 84.0003H36V88.0009H32V84.0003Z" fill="#79D47D"/>
<path d="M36 84.0003H40V88.0009H36V84.0003Z" fill="#79D47D"/>
<path d="M40 84.0003H44V88.0009H40V84.0003Z" fill="#79D47D"/>
<path d="M44 84.0003H48V88.0009H44V84.0003Z" fill="#79D47D"/>
<path d="M48 84.0003H52V88.0009H48V84.0003Z" fill="#79D47D"/>
<path d="M52 84.0003H56V88.0009H52V84.0003Z" fill="#79D47D"/>
<path d="M55.9978 84.0003H59.9978V88.0009H55.9978V84.0003Z" fill="#79D47D"/>
<path d="M60 84.0003H64V88.0009H60V84.0003Z" fill="#79D47D"/>
<path d="M64 84.0003H68V88.0009H64V84.0003Z" fill="#79D47D"/>
<path d="M68.0022 84.0003H72.0022V88.0009H68.0022V84.0003Z" fill="#79D47D"/>
<path d="M72.0022 84.0003H76.0022V88.0009H72.0022V84.0003Z" fill="#79D47D"/>
<path d="M76 84.0003H80V88.0009H76V84.0003Z" fill="#79D47D"/>
<path d="M80 84.0003H84V88.0009H80V84.0003Z" fill="#79D47D"/>
<path d="M84 84.0003H88V88.0009H84V84.0003Z" fill="#79D47D"/>
<path d="M88 84.0003H92V88.0009H88V84.0003Z" fill="#79D47D"/>
<path d="M92 84.0003H96V88.0009H92V84.0003Z" fill="#79D47D"/>
<path d="M96 84.0003H100V88.0009H96V84.0003Z" fill="#79D47D"/>
<path d="M100.002 84.0003H104.002V88.0009H100.002V84.0003Z" fill="#79D47D"/>
<path d="M104 84.0003H108V88.0009H104V84.0003Z" fill="#79D47D"/>
<path d="M108 84.0003H112V88.0009H108V84.0003Z" fill="#74D37D"/>
<path d="M112.002 84.0003H116.002V88.0009H112.002V84.0003Z" fill="#00BD69"/>
<path d="M116 84.0003H120V88.0009H116V84.0003Z" fill="#2C2C2C"/>
<path d="M120 84.0003H124V88.0009H120V84.0003Z" fill="#2C2C2C"/>
<path d="M124 84.0003H128V88.0009H124V84.0003Z" fill="#2C2C2C"/>
<path d="M132 92.0005H136V96.0006H132V92.0005Z" fill="#008441"/>
<path d="M136 88H140V92L136 92.0005V88Z" fill="#008441"/>
<path d="M24 88.0009H28V92.0003H24V88.0009Z" fill="#00BD68"/>
<path d="M28 88.0009H32V92.0003H28V88.0009Z" fill="#00C16B"/>
<path d="M32 88.0009H36V92.0003H32V88.0009Z" fill="#79D47D"/>
<path d="M36 88.0009H40V92.0003H36V88.0009Z" fill="#79D47D"/>
<path d="M40 88.0009H44V92.0003H40V88.0009Z" fill="#79D47D"/>
<path d="M44 88.0009H48V92.0003H44V88.0009Z" fill="#79D47D"/>
<path d="M48 88.0009H52V92.0003H48V88.0009Z" fill="#2C2C2C"/>
<path d="M52 88.0009H56V92.0003H52V88.0009Z" fill="#323731"/>
<path d="M55.9978 88.0009H59.9978V92.0003H55.9978V88.0009Z" fill="#79D47D"/>
<path d="M60 88.0009H64V92.0003H60V88.0009Z" fill="#79D47D"/>
<path d="M64 88.0009H68V92.0003H64V88.0009Z" fill="#79D47D"/>
<path d="M68.0022 88.0009H72.0022V92.0003H68.0022V88.0009Z" fill="#79D47D"/>
<path d="M72.0022 88.0009H76.0022V92.0003H72.0022V88.0009Z" fill="#79D47D"/>
<path d="M76 88.0009H80V92.0003H76V88.0009Z" fill="#79D47D"/>
<path d="M80 88.0009H84V92.0003H80V88.0009Z" fill="#79D47D"/>
<path d="M84 88.0009H88V92.0003H84V88.0009Z" fill="#79D47D"/>
<path d="M88 88.0009H92V92.0003H88V88.0009Z" fill="#79D47D"/>
<path d="M92 88.0009H96V92.0003H92V88.0009Z" fill="#79D47D"/>
<path d="M96 88.0009H100V92.0003H96V88.0009Z" fill="#79D47D"/>
<path d="M100.002 88.0009H104.002V92.0003H100.002V88.0009Z" fill="#79D47D"/>
<path d="M104 88.0009H108V92.0003H104V88.0009Z" fill="#79D47D"/>
<path d="M108 88.0009H112V92.0003H108V88.0009Z" fill="#79D47D"/>
<path d="M112.002 88.0009H116.002V92.0003H112.002V88.0009Z" fill="#2C312E"/>
<path d="M116 88.0009H120V92.0003H116V88.0009Z" fill="#2C2C2C"/>
<path d="M120 88.0009H124V92.0003H120V88.0009Z" fill="#2C2C2C"/>
<path d="M124 88.0009H128V92.0003H124V88.0009Z" fill="#2C2C2C"/>
<path d="M16 92.0005H20V96.0006H16V92.0005Z" fill="#00843F"/>
<path d="M24 92.0003H28V96.0006H24V92.0003Z" fill="#00BE69"/>
<path d="M28 92.0003H32V96.0006H28V92.0003Z" fill="#15C56F"/>
<path d="M32 92.0003H36V96.0006H32V92.0003Z" fill="#79D47D"/>
<path d="M36 92.0003H40V96.0006H36V92.0003Z" fill="#74D37D"/>
<path d="M40 92.0003H44V96.0006H40V92.0003Z" fill="#18C66F"/>
<path d="M44 92.0003H48V96.0006H44V92.0003Z" fill="#67D17B"/>
<path d="M48 92.0003H52V96.0006H48V92.0003Z" fill="#79D47D"/>
<path d="M52 92.0003H56V96.0006H52V92.0003Z" fill="#2D2D2D"/>
<path d="M55.9978 92.0003H59.9978V96.0006H55.9978V92.0003Z" fill="#2C2C2C"/>
<path d="M60 92.0003H64V96.0006H60V92.0003Z" fill="#2C2C2C"/>
<path d="M64 92.0003H68V96.0006H64V92.0003Z" fill="#79D47D"/>
<path d="M68.0022 92.0003H72.0022V96.0006H68.0022V92.0003Z" fill="#79D47D"/>
<path d="M72.0022 92.0003H76.0022V96.0006H72.0022V92.0003Z" fill="#79D47D"/>
<path d="M76 92.0003H80V96.0006H76V92.0003Z" fill="#79D47D"/>
<path d="M80 92.0003H84V96.0006H80V92.0003Z" fill="#79D47D"/>
<path d="M84 92.0003H88V96.0006H84V92.0003Z" fill="#79D47D"/>
<path d="M88 92.0003H92V96.0006H88V92.0003Z" fill="#79D47D"/>
<path d="M92 92.0003H96V96.0006H92V92.0003Z" fill="#79D47D"/>
<path d="M96 92.0003H100V96.0006H96V92.0003Z" fill="#79D47D"/>
<path d="M100.002 92.0003H104.002V96.0006H100.002V92.0003Z" fill="#7AD480"/>
<path d="M104 92.0003H108V96.0006H104V92.0003Z" fill="#79D47D"/>
<path d="M108 92.0003H112V96.0006H108V92.0003Z" fill="#2D2D2D"/>
<path d="M112.002 92.0003H116.002V96.0006H112.002V92.0003Z" fill="#2C2C2C"/>
<path d="M116 92.0003H120V96.0006H116V92.0003Z" fill="#2C2C2C"/>
<path d="M120 92.0003H124V96.0006H120V92.0003Z" fill="#2D312E"/>
<path d="M16 96.0006H20V100H16V96.0006Z" fill="#008441"/>
<path d="M19.9978 84.0005H23.9978V88.0006H19.9978V84.0005Z" fill="#00843F"/>
<path d="M19.9978 88.0006H23.9978V92.0003H19.9978V88.0006Z" fill="#008441"/>
<path d="M24 96.0006H28V100H24V96.0006Z" fill="#00C06B"/>
<path d="M19.9978 92.0003H23.9978V96.0006H19.9978V92.0003Z" fill="#00BE69"/>
<path d="M19.9978 96.0006H23.9978V100H19.9978V96.0006Z" fill="#00C06B"/>
<path d="M28 96.0006H32V100H28V96.0006Z" fill="#46CB75"/>
<path d="M32 96.0006H36V100H32V96.0006Z" fill="#79D47D"/>
<path d="M36 96.0006H40V100H36V96.0006Z" fill="#6DD17B"/>
<path d="M40 96.0006H44V100H40V96.0006Z" fill="#3BC973"/>
<path d="M44 96.0006H48V100H44V96.0006Z" fill="#00C26B"/>
<path d="M48 96.0006H52V100H48V96.0006Z" fill="#78D47C"/>
<path d="M52 96.0006H56V100H52V96.0006Z" fill="#79D47D"/>
<path d="M55.9978 96.0006H59.9978V100H55.9978V96.0006Z" fill="#2D2E2D"/>
<path d="M60 96.0006H64V100H60V96.0006Z" fill="#2C2C2C"/>
<path d="M64 96.0006H68V100H64V96.0006Z" fill="#2C2C2C"/>
<path d="M68.0022 96.0006H72.0022V100H68.0022V96.0006Z" fill="#2C2C2C"/>
<path d="M72.0022 96.0006H76.0022V100H72.0022V96.0006Z" fill="#2C2C2C"/>
<path d="M76 96.0006H80V100H76V96.0006Z" fill="#79D47D"/>
<path d="M80 96.0006H84V100H80V96.0006Z" fill="#79D47D"/>
<path d="M84 96.0006H88V100H84V96.0006Z" fill="#79D47D"/>
<path d="M88 96.0006H92V100H88V96.0006Z" fill="#79D47D"/>
<path d="M92 96.0006H96V100H92V96.0006Z" fill="#79D47D"/>
<path d="M96 96.0006H100V100H96V96.0006Z" fill="#79D47D"/>
<path d="M100.002 96.0006H104.002V100H100.002V96.0006Z" fill="#79D47D"/>
<path d="M104 96.0006H108V100H104V96.0006Z" fill="#2C2C2C"/>
<path d="M108 96.0006H112V100H108V96.0006Z" fill="#2C2C2C"/>
<path d="M112.002 96.0006H116.002V100H112.002V96.0006Z" fill="#2C2C2C"/>
<path d="M116 96.0006H120V100H116V96.0006Z" fill="#2C2C2C"/>
<path d="M120 96.0006H124V100H120V96.0006Z" fill="#00AB59"/>
<path d="M19.9978 100H23.9978V104.001H19.9978V100Z" fill="#008441"/>
<path d="M24 100H28V104.001H24V100Z" fill="#00BD69"/>
<path d="M28 100H32V104.001H28V100Z" fill="#00C26C"/>
<path d="M32 100H36V104.001H32V100Z" fill="#46CB75"/>
<path d="M36 100H40V104.001H36V100Z" fill="#79D47D"/>
<path d="M40 100H44V104.001H40V100Z" fill="#79D47D"/>
<path d="M44 100H48V104.001H44V100Z" fill="#79D47D"/>
<path d="M48 100H52V104.001H48V100Z" fill="#79D47D"/>
<path d="M52 100H56V104.001H52V100Z" fill="#79D47D"/>
<path d="M55.9978 100H59.9978V104.001H55.9978V100Z" fill="#79D47D"/>
<path d="M60 100H64V104.001H60V100Z" fill="#2C2C2C"/>
<path d="M64 100H68V104.001H64V100Z" fill="#2F3330"/>
<path d="M68.0022 100H72.0022V104.001H68.0022V100Z" fill="#2D2E2D"/>
<path d="M72.0022 100H76.0022V104.001H72.0022V100Z" fill="#2C2C2C"/>
<path d="M76 100H80V104.001H76V100Z" fill="#2C2C2C"/>
<path d="M80 100H84V104.001H80V100Z" fill="#2C2D2C"/>
<path d="M84 100H88V104.001H84V100Z" fill="#30322F"/>
<path d="M88 100H92V104.001H88V100Z" fill="#79D47D"/>
<path d="M92 100H96V104.001H92V100Z" fill="#79D47D"/>
<path d="M96 100H100V104.001H96V100Z" fill="#79D47D"/>
<path d="M100.002 100H104.002V104.001H100.002V100Z" fill="#2C2C2C"/>
<path d="M104 100H108V104.001H104V100Z" fill="#2C2C2C"/>
<path d="M108 100H112V104.001H108V100Z" fill="#2C2C2C"/>
<path d="M112.002 100H116.002V104.001H112.002V100Z" fill="#303431"/>
<path d="M116 100H120V104.001H116V100Z" fill="#2F3831"/>
<path d="M120 100H124V104.001H120V100Z" fill="#00BD69"/>
<path d="M124 100L128 100.001V104.001H124V100Z" fill="#008441"/>
<path d="M124 96.0006L128 96.0003V100.001L124 100V96.0006Z" fill="#008441"/>
<path d="M19.9978 104.001H23.9978V108.001H19.9978V104.001Z" fill="#008441"/>
<path d="M19.9978 108.001H23.9978V112.001H19.9978V108.001Z" fill="#008441"/>
<path d="M19.9978 112.001H23.9978V116.001H19.9978V112.001Z" fill="#008441"/>
<path d="M19.9978 120.001H23.9978V124.001H19.9978V120.001Z" fill="#008441"/>
<path d="M19.9978 124.001H23.9978V128.001H19.9978V124.001Z" fill="#008441"/>
<path d="M24 104.001H28V108.001H24V104.001Z" fill="#00BE69"/>
<path d="M28 104.001H32V108.001H28V104.001Z" fill="#00A454"/>
<path d="M32 104.001H36V108.001H32V104.001Z" fill="#00C36F"/>
<path d="M36 104.001H40V108.001H36V104.001Z" fill="#79D47D"/>
<path d="M40 104.001H44V108.001H40V104.001Z" fill="#79D47D"/>
<path d="M44 104.001H48V108.001H44V104.001Z" fill="#79D47D"/>
<path d="M48 104.001H52V108.001H48V104.001Z" fill="#79D47D"/>
<path d="M52 104.001H56V108.001H52V104.001Z" fill="#79D47D"/>
<path d="M55.9978 104.001H59.9978V108.001H55.9978V104.001Z" fill="#79D47D"/>
<path d="M60 104.001H64V108.001H60V104.001Z" fill="#79D47D"/>
<path d="M64 104.001H68V108.001H64V104.001Z" fill="#2D2E2D"/>
<path d="M68.0022 104.001H72.0022V108.001H68.0022V104.001Z" fill="#2C2C2C"/>
<path d="M72.0022 104.001H76.0022V108.001H72.0022V104.001Z" fill="#2D2E2D"/>
<path d="M76 104.001H80V108.001H76V104.001Z" fill="#2D2D2D"/>
<path d="M80 104.001H84V108.001H80V104.001Z" fill="#2D2E2D"/>
<path d="M84 104.001H88V108.001H84V104.001Z" fill="#2C2C2C"/>
<path d="M88 104.001H92V108.001H88V104.001Z" fill="#2C2C2C"/>
<path d="M92 104.001H96V108.001H92V104.001Z" fill="#2C2C2C"/>
<path d="M96 104.001H100V108.001H96V104.001Z" fill="#79D47D"/>
<path d="M100.002 104.001H104.002V108.001H100.002V104.001Z" fill="#2C2C2C"/>
<path d="M104 104.001H108V108.001H104V104.001Z" fill="#2C2C2C"/>
<path d="M108 104.001H112V108.001H108V104.001Z" fill="#2C2C2C"/>
<path d="M112.002 104.001H116.002V108.001H112.002V104.001Z" fill="#2C2C2C"/>
<path d="M116 104.001H120V108.001H116V104.001Z" fill="#79D47D"/>
<path d="M120 104.001H124V108.001H120V104.001Z" fill="#00C16B"/>
<path d="M124 104.001H128V108.001H124V104.001Z" fill="#00BD69"/>
<path d="M24 108.001H28V112.001H24V108.001Z" fill="#00BB65"/>
<path d="M28 108.001H32V112.001H28V108.001Z" fill="#008540"/>
<path d="M32 108.001H36V112.001H32V108.001Z" fill="#51CD76"/>
<path d="M36 108.001H40V112.001H36V108.001Z" fill="#79D47D"/>
<path d="M40 108.001H44V112.001H40V108.001Z" fill="#79D47D"/>
<path d="M44 108.001H48V112.001H44V108.001Z" fill="#79D47D"/>
<path d="M48 108.001H52V112.001H48V108.001Z" fill="#79D47D"/>
<path d="M52 108.001H56V112.001H52V108.001Z" fill="#79D47D"/>
<path d="M55.9978 108.001H59.9978V112.001H55.9978V108.001Z" fill="#79D47D"/>
<path d="M60 108.001H64V112.001H60V108.001Z" fill="#79D47D"/>
<path d="M64 108.001H68V112.001H64V108.001Z" fill="#79D47D"/>
<path d="M68.0022 108.001H72.0022V112.001H68.0022V108.001Z" fill="#303531"/>
<path d="M72.0022 108.001H76.0022V112.001H72.0022V108.001Z" fill="#2C2C2C"/>
<path d="M76 108.001H80V112.001H76V108.001Z" fill="#2C2C2C"/>
<path d="M80 108.001H84V112.001H80V108.001Z" fill="#2C2C2C"/>
<path d="M84 108.001H88V112.001H84V108.001Z" fill="#2D2E2D"/>
<path d="M88 108.001H92V112.001H88V108.001Z" fill="#2C2C2C"/>
<path d="M92 108.001H96V112.001H92V108.001Z" fill="#2D2E2D"/>
<path d="M96 108.001H100V112.001H96V108.001Z" fill="#2C2C2C"/>
<path d="M100.002 108.001H104.002V112.001H100.002V108.001Z" fill="#2C2C2C"/>
<path d="M104 108.001H108V112.001H104V108.001Z" fill="#2D2E2D"/>
<path d="M108 108.001H112V112.001H108V108.001Z" fill="#2C2C2C"/>
<path d="M112.002 108.001H116.002V112.001H112.002V108.001Z" fill="#2C2C2C"/>
<path d="M116 108.001H120V112.001H116V108.001Z" fill="#79D47D"/>
<path d="M120 108.001H124V112.001H120V108.001Z" fill="#61D079"/>
<path d="M124 108.001H128V112.001H124V108.001Z" fill="#00BD69"/>
<path d="M128 108.001L132 108.001V112.001H128V108.001Z" fill="#008540"/>
<path d="M12 112.001H16V116.001H12V112.001Z" fill="#008540"/>
<path d="M8 116L12 116.001L12 120H8V116Z" fill="#008540"/>
<path d="M128 104.001L132 104.001V108.001L128 108.001V104.001Z" fill="#008540"/>
<path d="M24 112.001H28V116.001H24V112.001Z" fill="#009348"/>
<path d="M28 112.001H32V116.001H28V112.001Z" fill="#00C36C"/>
<path d="M32 112.001H36V116.001H32V112.001Z" fill="#70D17C"/>
<path d="M36 112.001H40V116.001H36V112.001Z" fill="#79D47D"/>
<path d="M40 112.001H44V116.001H40V112.001Z" fill="#79D47D"/>
<path d="M44 112.001H48V116.001H44V112.001Z" fill="#79D47D"/>
<path d="M48 112.001H52V116.001H48V112.001Z" fill="#79D47D"/>
<path d="M52 112.001H56V116.001H52V112.001Z" fill="#79D47D"/>
<path d="M55.9978 112.001H59.9978V116.001H55.9978V112.001Z" fill="#79D47D"/>
<path d="M60 112.001H64V116.001H60V112.001Z" fill="#79D47D"/>
<path d="M64 112.001H68V116.001H64V112.001Z" fill="#79D47D"/>
<path d="M68.0022 112.001H72.0022V116.001H68.0022V112.001Z" fill="#79D47D"/>
<path d="M72.0022 112.001H76.0022V116.001H72.0022V112.001Z" fill="#79D47D"/>
<path d="M76 112.001H80V116.001H76V112.001Z" fill="#2C2C2C"/>
<path d="M80 112.001H84V116.001H80V112.001Z" fill="#2C2C2C"/>
<path d="M84 112.001H88V116.001H84V112.001Z" fill="#2C2C2C"/>
<path d="M88 112.001H92V116.001H88V112.001Z" fill="#2D2D2D"/>
<path d="M92 112.001H96V116.001H92V112.001Z" fill="#2C2C2C"/>
<path d="M96 112.001H100V116.001H96V112.001Z" fill="#2C2C2C"/>
<path d="M100.002 112.001H104.002V116.001H100.002V112.001Z" fill="#79D47D"/>
<path d="M104 112.001H108V116.001H104V112.001Z" fill="#2C2C2C"/>
<path d="M108 112.001H112V116.001H108V112.001Z" fill="#2C2C2C"/>
<path d="M112.002 112.001H116.002V116.001H112.002V112.001Z" fill="#79D47D"/>
<path d="M116 112.001H120V116.001H116V112.001Z" fill="#79D47D"/>
<path d="M120 112.001H124V116.001H120V112.001Z" fill="#79D47D"/>
<path d="M124 112.001H128V116.001H124V112.001Z" fill="#00BE68"/>
<path d="M128 112.001H132V116.001H128V112.001Z" fill="#00BC68"/>
<path d="M128 120H132V124H128V120Z" fill="#00BC68"/>
<path d="M24 116.001H28V120.001H24V116.001Z" fill="#008441"/>
<path d="M28 116.001H32V120.001H28V116.001Z" fill="#11C56E"/>
<path d="M32 116.001H36V120.001H32V116.001Z" fill="#79D47D"/>
<path d="M36 116.001H40V120.001H36V116.001Z" fill="#79D47D"/>
<path d="M40 116.001H44V120.001H40V116.001Z" fill="#79D47D"/>
<path d="M44 116.001H48V120.001H44V116.001Z" fill="#79D47D"/>
<path d="M48 116.001H52V120.001H48V116.001Z" fill="#79D47D"/>
<path d="M52 116.001H56V120.001H52V116.001Z" fill="#79D47D"/>
<path d="M55.9978 116.001H59.9978V120.001H55.9978V116.001Z" fill="#79D47D"/>
<path d="M60 116.001H64V120.001H60V116.001Z" fill="#79D47D"/>
<path d="M64 116.001H68V120.001H64V116.001Z" fill="#79D47D"/>
<path d="M68.0022 116.001H72.0022V120.001H68.0022V116.001Z" fill="#79D47D"/>
<path d="M72.0022 116.001H76.0022V120.001H72.0022V116.001Z" fill="#79D47D"/>
<path d="M76 116.001H80V120.001H76V116.001Z" fill="#79D47D"/>
<path d="M80 116.001H84V120.001H80V116.001Z" fill="#303431"/>
<path d="M84 116.001H88V120.001H84V116.001Z" fill="#313832"/>
<path d="M88 116.001H92V120.001H88V116.001Z" fill="#2C2C2C"/>
<path d="M92 116.001H96V120.001H92V116.001Z" fill="#2C2C2C"/>
<path d="M96 116.001H100V120.001H96V116.001Z" fill="#79D47D"/>
<path d="M100.002 116.001H104.002V120.001H100.002V116.001Z" fill="#79D47D"/>
<path d="M104 116.001H108V120.001H104V116.001Z" fill="#79D47D"/>
<path d="M108 116.001H112V120.001H108V116.001Z" fill="#79D47D"/>
<path d="M112.002 116.001H116.002V120.001H112.002V116.001Z" fill="#79D47D"/>
<path d="M116 116.001H120V120.001H116V116.001Z" fill="#50CC76"/>
<path d="M120 116.001H124V120.001H120V116.001Z" fill="#6FD27B"/>
<path d="M124 116.001H128V120.001H124V116.001Z" fill="#00C36D"/>
<path d="M128 116.001H132V120.001H128V116.001Z" fill="#00BD69"/>
<path d="M132 116.001L136 116.001V120.001H132V116.001Z" fill="#008441"/>
<path d="M24 120.001H28V124.001H24V120.001Z" fill="#008540"/>
<path d="M28 120.001H32V124.001H28V120.001Z" fill="#3DC972"/>
<path d="M32 120.001H36V124.001H32V120.001Z" fill="#79D47D"/>
<path d="M36 120.001H40V124.001H36V120.001Z" fill="#79D47D"/>
<path d="M40 120.001H44V124.001H40V120.001Z" fill="#79D47D"/>
<path d="M44 120.001H48V124.001H44V120.001Z" fill="#79D47D"/>
<path d="M48 120.001H52V124.001H48V120.001Z" fill="#79D47D"/>
<path d="M52 120.001H56V124.001H52V120.001Z" fill="#79D47D"/>
<path d="M55.9978 120.001H59.9978V124.001H55.9978V120.001Z" fill="#79D47D"/>
<path d="M60 120.001H64V124.001H60V120.001Z" fill="#79D47D"/>
<path d="M64 120.001H68V124.001H64V120.001Z" fill="#79D47D"/>
<path d="M68.0022 120.001H72.0022V124.001H68.0022V120.001Z" fill="#79D47D"/>
<path d="M72.0022 120.001H76.0022V124.001H72.0022V120.001Z" fill="#79D47D"/>
<path d="M76 120.001H80V124.001H76V120.001Z" fill="#79D47D"/>
<path d="M80 120.001H84V124.001H80V120.001Z" fill="#79D47D"/>
<path d="M84 120.001H88V124.001H84V120.001Z" fill="#79D47D"/>
<path d="M88 120.001H92V124.001H88V120.001Z" fill="#79D47D"/>
<path d="M92 120.001H96V124.001H92V120.001Z" fill="#79D47D"/>
<path d="M96 120.001H100V124.001H96V120.001Z" fill="#79D47D"/>
<path d="M100.002 120.001H104.002V124.001H100.002V120.001Z" fill="#79D47D"/>
<path d="M104 120.001H108V124.001H104V120.001Z" fill="#79D47D"/>
<path d="M108 120.001H112V124.001H108V120.001Z" fill="#79D47D"/>
<path d="M112.002 120.001H116.002V124.001H112.002V120.001Z" fill="#79D47D"/>
<path d="M116 120.001H120V124.001H116V120.001Z" fill="#00C36B"/>
<path d="M120 120.001H124V124.001H120V120.001Z" fill="#5DCF78"/>
<path d="M124 120.001H128V124.001H124V120.001Z" fill="#00BD68"/>
<path d="M140 156H144V160H140V156Z" fill="#008641"/>
<path d="M132 120.001H136V124.001H132L132 120.001Z" fill="#008441"/>
<path d="M24 124.001H28V128.001H24V124.001Z" fill="#00C16C"/>
<path d="M28 124.001H32V128.001H28V124.001Z" fill="#37CA74"/>
<path d="M32 124.001H36V128.001H32V124.001Z" fill="#79D47D"/>
<path d="M36 124.001H40V128.001H36V124.001Z" fill="#79D47D"/>
<path d="M40 124.001H44V128.001H40V124.001Z" fill="#79D47D"/>
<path d="M44 124.001H48V128.001H44V124.001Z" fill="#79D47D"/>
<path d="M48 124.001H52V128.001H48V124.001Z" fill="#79D47D"/>
<path d="M52 124.001H56V128.001H52V124.001Z" fill="#78D37D"/>
<path d="M55.9978 124.001H59.9978V128.001H55.9978V124.001Z" fill="#79D47D"/>
<path d="M60 124.001H64V128.001H60V124.001Z" fill="#79D47D"/>
<path d="M64 124.001H68V128.001H64V124.001Z" fill="#79D47D"/>
<path d="M68.0022 124.001H72.0022V128.001H68.0022V124.001Z" fill="#64D079"/>
<path d="M72.0022 124.001H76.0022V128.001H72.0022V124.001Z" fill="#79D47D"/>
<path d="M76 124.001H80V128.001H76V124.001Z" fill="#79D47D"/>
<path d="M80 124.001H84V128.001H80V124.001Z" fill="#79D47D"/>
<path d="M84 124.001H88V128.001H84V124.001Z" fill="#79D47D"/>
<path d="M88 124.001H92V128.001H88V124.001Z" fill="#79D47D"/>
<path d="M92 124.001H96V128.001H92V124.001Z" fill="#79D47D"/>
<path d="M96 124.001H100V128.001H96V124.001Z" fill="#79D47D"/>
<path d="M100.002 124.001H104.002V128.001H100.002V124.001Z" fill="#79D47D"/>
<path d="M104 124.001H108V128.001H104V124.001Z" fill="#79D47D"/>
<path d="M108 124.001H112V128.001H108V124.001Z" fill="#79D47D"/>
<path d="M112.002 124.001H116.002V128.001H112.002V124.001Z" fill="#79D47D"/>
<path d="M116 124.001H120V128.001H116V124.001Z" fill="#01C36F"/>
<path d="M120 124.001H124V128.001H120V124.001Z" fill="#78D37C"/>
<path d="M124 124.001H128V128.001H124V124.001Z" fill="#00C169"/>
<path d="M128 124L132 124.001L132 128.001H128V124Z" fill="#008441"/>
<path d="M16 128.001H20V132.001H16V128.001Z" fill="#008A45"/>
<path d="M19.9978 128.001H23.9978V132.001H19.9978V128.001Z" fill="#00C26C"/>
<path d="M24 128.001H28V132.001H24V128.001Z" fill="#3BC973"/>
<path d="M32 128.001H36V132.001H32L32 128.001Z" fill="#79D47D"/>
<path d="M36 128.001H40V132.001H36V128.001Z" fill="#79D47D"/>
<path d="M40 128.001H44V132.001H40V128.001Z" fill="#79D47D"/>
<path d="M44 128.001H48V132.001H44V128.001Z" fill="#35CA72"/>
<path d="M48 128.001H52V132.001H48V128.001Z" fill="#79D47D"/>
<path d="M52 128.001H56V132.001H52V128.001Z" fill="#32C872"/>
<path d="M55.9978 128.001H59.9978V132.001H55.9978V128.001Z" fill="#78D37D"/>
<path d="M60 128.001H64V132.001H60V128.001Z" fill="#50CD76"/>
<path d="M64 128.001H68V132.001H64V128.001Z" fill="#6AD279"/>
<path d="M68.0022 128.001H72.0022V132.001H68.0022V128.001Z" fill="#00C16B"/>
<path d="M72.0022 128.001H76.0022V132.001H72.0022V128.001Z" fill="#79D47D"/>
<path d="M76 128.001H80V132.001H76V128.001Z" fill="#79D47D"/>
<path d="M80 128.001H84V132.001H80V128.001Z" fill="#79D47D"/>
<path d="M84 128.001H88V132.001H84V128.001Z" fill="#79D47D"/>
<path d="M88 128.001H92V132.001H88V128.001Z" fill="#79D47D"/>
<path d="M92 128.001H96V132.001H92V128.001Z" fill="#79D47D"/>
<path d="M96 128.001H100V132.001H96V128.001Z" fill="#79D47D"/>
<path d="M100.002 128.001H104.002V132.001H100.002V128.001Z" fill="#79D47D"/>
<path d="M104 128.001H108V132.001H104V128.001Z" fill="#79D47D"/>
<path d="M108 128.001H112V132.001H108V128.001Z" fill="#79D47D"/>
<path d="M112.002 128.001H116.002V132.001H112.002V128.001Z" fill="#79D47D"/>
<path d="M116 128.001H120V132.001H116V128.001Z" fill="#79D47D"/>
<path d="M120 128.001H124V132.001H120V128.001Z" fill="#79D47D"/>
<path d="M124 128.001H128V132.001H124V128.001Z" fill="#4ACC76"/>
<path d="M128 128.001H132V132.001H128V128.001Z" fill="#00BD68"/>
<path d="M132 128.001L136 128.001V132.001H132V128.001Z" fill="#008441"/>
<path d="M16 132.001H20V136.001H16V132.001Z" fill="#008441"/>
<path d="M19.9978 132.001H23.9978V136.001H19.9978V132.001Z" fill="#00C16A"/>
<path d="M24 132.001H28V136.001H24V132.001Z" fill="#4ACC75"/>
<path d="M32 132.001H36V136.001H32V132.001Z" fill="#79D47D"/>
<path d="M28 132.001L32 132.001V136.001L28 136.001V132.001Z" fill="#79D47D"/>
<path d="M36 132.001H40V136.001H36V132.001Z" fill="#79D47D"/>
<path d="M40 132.001H44V136.001H40V132.001Z" fill="#79D47D"/>
<path d="M44 132.001H48V136.001H44V132.001Z" fill="#11C56F"/>
<path d="M48 132.001H52V136.001H48V132.001Z" fill="#79D47D"/>
<path d="M52 132.001H56V136.001H52V132.001Z" fill="#00C46D"/>
<path d="M55.9978 132.001H59.9978V136.001H55.9978V132.001Z" fill="#79D47D"/>
<path d="M60 132.001H64V136.001H60V132.001Z" fill="#4DCC75"/>
<path d="M64 132.001H68V136.001H64V132.001Z" fill="#3CCA73"/>
<path d="M68.0022 132.001H72.0022V136.001H68.0022V132.001Z" fill="#00C16A"/>
<path d="M72.0022 132.001H76.0022V136.001H72.0022V132.001Z" fill="#79D47D"/>
<path d="M76 132.001H80V136.001H76V132.001Z" fill="#79D47D"/>
<path d="M80 132.001H84V136.001H80V132.001Z" fill="#79D47D"/>
<path d="M84 132.001H88V136.001H84V132.001Z" fill="#79D47D"/>
<path d="M88 132.001H92V136.001H88V132.001Z" fill="#79D47D"/>
<path d="M92 132.001H96V136.001H92V132.001Z" fill="#79D47D"/>
<path d="M96 132.001H100V136.001H96V132.001Z" fill="#79D47D"/>
<path d="M100.002 132.001H104.002V136.001H100.002V132.001Z" fill="#79D47D"/>
<path d="M104 132.001H108V136.001H104V132.001Z" fill="#79D47D"/>
<path d="M108 132.001H112V136.001H108V132.001Z" fill="#79D47D"/>
<path d="M112.002 132.001H116.002V136.001H112.002V132.001Z" fill="#79D47D"/>
<path d="M116 132.001H120V136.001H116V132.001Z" fill="#79D47D"/>
<path d="M120 132.001H124V136.001H120V132.001Z" fill="#79D47D"/>
<path d="M124 132.001H128V136.001H124V132.001Z" fill="#79D47D"/>
<path d="M128 132.001H132V136.001H128V132.001Z" fill="#00C068"/>
<path d="M132 132.001H136V136.001H132V132.001Z" fill="#00BD69"/>
<path d="M16 136.001H20V140.001H16V136.001Z" fill="#008540"/>
<path d="M19.9978 136.001H23.9978V140.001H19.9978V136.001Z" fill="#00BF6A"/>
<path d="M24 136.001H28V140.001H24V136.001Z" fill="#32C872"/>
<path d="M32 136.001H36V140.001H32V136.001Z" fill="#79D47D"/>
<path d="M36 136.001H40V140.001H36V136.001Z" fill="#79D47D"/>
<path d="M40 136.001H44V140.001H40V136.001Z" fill="#79D47D"/>
<path d="M44 136.001H48V140.001H44V136.001Z" fill="#0DC46F"/>
<path d="M48 136.001H52V140.001H48V136.001Z" fill="#79D47D"/>
<path d="M52 136.001H56V140.001H52V136.001Z" fill="#57CE77"/>
<path d="M55.9978 136.001H59.9978V140.001H55.9978V136.001Z" fill="#79D47D"/>
<path d="M60 136.001H64V140.001H60V136.001Z" fill="#62CF79"/>
<path d="M64 136.001H68V140.001H64V136.001Z" fill="#71D17B"/>
<path d="M68.0022 136.001H72.0022V140.001H68.0022V136.001Z" fill="#4DCC75"/>
<path d="M72.0022 136.001H76.0022V140.001H72.0022V136.001Z" fill="#79D47D"/>
<path d="M76 136.001H80V140.001H76V136.001Z" fill="#79D47D"/>
<path d="M80 136.001H84V140.001H80V136.001Z" fill="#79D47D"/>
<path d="M84 136.001H88V140.001H84V136.001Z" fill="#79D47D"/>
<path d="M88 136.001H92V140.001H88V136.001Z" fill="#79D47D"/>
<path d="M92 136.001H96V140.001H92V136.001Z" fill="#79D47D"/>
<path d="M96 136.001H100V140.001H96V136.001Z" fill="#79D47D"/>
<path d="M100.002 136.001H104.002V140.001H100.002V136.001Z" fill="#79D47D"/>
<path d="M104 136.001H108V140.001H104V136.001Z" fill="#79D47D"/>
<path d="M108 136.001H112V140.001H108V136.001Z" fill="#79D47D"/>
<path d="M112.002 136.001H116.002V140.001H112.002V136.001Z" fill="#79D47D"/>
<path d="M116 136.001H120V140.001H116V136.001Z" fill="#79D47D"/>
<path d="M120 136.001H124V140.001H120V136.001Z" fill="#79D47D"/>
<path d="M124 136.001H128V140.001H124V136.001Z" fill="#79D47D"/>
<path d="M128 136.001H132V140.001H128V136.001Z" fill="#61D079"/>
<path d="M132 136.001H136V140.001H132V136.001Z" fill="#00BD69"/>
<path d="M136.002 136.001H140.002V140.001H136.002V136.001Z" fill="#008441"/>
<path d="M136.002 132.001H140.002V136.001H136.002V132.001Z" fill="#008441"/>
<path d="M16 140.001H20V144.001H16V140.001Z" fill="#00853F"/>
<path d="M19.9978 140.001H23.9978V144H19.9978V140.001Z" fill="#00BE69"/>
<path d="M19.9978 144H23.9978V148.001H19.9978V144Z" fill="#00B15C"/>
<path d="M32 140.001H36V144.001H32V140.001Z" fill="#60D078"/>
<path d="M36 140.001H40V144.001H36V140.001Z" fill="#79D47D"/>
<path d="M40 140.001H44V144.001H40V140.001Z" fill="#79D47D"/>
<path d="M44 140.001H48V144.001H44V140.001Z" fill="#70D17C"/>
<path d="M48 140.001H52V144.001H48V140.001Z" fill="#79D47D"/>
<path d="M52 140.001H56V144.001H52V140.001Z" fill="#79D47D"/>
<path d="M55.9978 140.001H59.9978V144.001H55.9978V140.001Z" fill="#79D47D"/>
<path d="M60 140.001H64V144.001H60V140.001Z" fill="#79D47D"/>
<path d="M64 140.001H68V144.001H64V140.001Z" fill="#79D47D"/>
<path d="M68.0022 140.001H72.0022V144.001H68.0022V140.001Z" fill="#79D47D"/>
<path d="M72.0022 140.001H76.0022V144.001H72.0022V140.001Z" fill="#79D47D"/>
<path d="M76 140.001H80V144.001H76V140.001Z" fill="#79D47D"/>
<path d="M80 140.001H84V144.001H80V140.001Z" fill="#79D47D"/>
<path d="M84 140.001H88V144.001H84V140.001Z" fill="#79D47D"/>
<path d="M88 140.001H92V144.001H88V140.001Z" fill="#79D47D"/>
<path d="M92 140.001H96V144.001H92V140.001Z" fill="#79D47D"/>
<path d="M96 140.001H100V144.001H96V140.001Z" fill="#79D47D"/>
<path d="M100.002 140.001H104.002V144.001H100.002V140.001Z" fill="#79D47D"/>
<path d="M104 140.001H108V144.001H104V140.001Z" fill="#79D47D"/>
<path d="M108 140.001H112V144.001H108V140.001Z" fill="#79D47D"/>
<path d="M112.002 140.001H116.002V144.001H112.002V140.001Z" fill="#79D47D"/>
<path d="M116 140.001H120V144.001H116V140.001Z" fill="#79D47D"/>
<path d="M120 140.001H124V144.001H120V140.001Z" fill="#79D47D"/>
<path d="M124 140.001H128V144.001H124V140.001Z" fill="#79D47D"/>
<path d="M128 140.001H132V144.001H128V140.001Z" fill="#70D37D"/>
<path d="M132 140.001H136V144.001H132V140.001Z" fill="#00C068"/>
<path d="M136.002 140.001H140.002V144.001H136.002V140.001Z" fill="#008441"/>
<path d="M16 144.001H20V148.001H16V144.001Z" fill="#008441"/>
<path d="M19.9978 148.001H23.9978V152.001H19.9978V148.001Z" fill="#008441"/>
<path d="M24 144.001H28V148.001H24V144.001Z" fill="#00BF69"/>
<path d="M24 140.001H28V144.001H24V140.001Z" fill="#32C872"/>
<path d="M36 144.001H40V148.001H36L36 144.001Z" fill="#79D47D"/>
<path d="M40 144.001H44V148.001H40V144.001Z" fill="#79D47D"/>
<path d="M44 144.001H48V148.001H44V144.001Z" fill="#79D47D"/>
<path d="M48 144.001H52V148.001H48V144.001Z" fill="#79D47D"/>
<path d="M52 144.001H56V148.001H52V144.001Z" fill="#79D47D"/>
<path d="M55.9978 144.001H59.9978V148.001H55.9978V144.001Z" fill="#79D47D"/>
<path d="M60 144.001H64V148.001H60V144.001Z" fill="#79D47D"/>
<path d="M64 144.001H68V148.001H64V144.001Z" fill="#79D47D"/>
<path d="M68.0022 144.001H72.0022V148.001H68.0022V144.001Z" fill="#79D47D"/>
<path d="M72.0022 144.001H76.0022V148.001H72.0022V144.001Z" fill="#79D47D"/>
<path d="M76 144.001H80V148.001H76V144.001Z" fill="#79D47D"/>
<path d="M80 144.001H84V148.001H80V144.001Z" fill="#78D57D"/>
<path d="M84 144.001H88V148.001H84V144.001Z" fill="#76D47C"/>
<path d="M88 144.001H92V148.001H88V144.001Z" fill="#79D47D"/>
<path d="M92 144.001H96V148.001H92V144.001Z" fill="#79D47D"/>
<path d="M96 144.001H100V148.001H96V144.001Z" fill="#79D47D"/>
<path d="M100.002 144.001H104.002V148.001H100.002V144.001Z" fill="#79D47D"/>
<path d="M104 144.001H108V148.001H104V144.001Z" fill="#79D47D"/>
<path d="M108 144.001H112V148.001H108V144.001Z" fill="#79D47D"/>
<path d="M112.002 144.001H116.002V148.001H112.002V144.001Z" fill="#79D47D"/>
<path d="M116 144.001H120V148.001H116V144.001Z" fill="#79D47D"/>
<path d="M120 144.001H124V148.001H120V144.001Z" fill="#79D47D"/>
<path d="M124 144.001H128V148.001H124V144.001Z" fill="#79D47D"/>
<path d="M128 144.001H132V148.001H128V144.001Z" fill="#79D47D"/>
<path d="M112 148.001H116L116 152H112L112 148.001Z" fill="#79D47D"/>
<path d="M115.998 148H119.998V152H115.998V148Z" fill="#79D47D"/>
<path d="M119.998 148H123.998V152H119.998V148Z" fill="#79D47D"/>
<path d="M123.998 148H127.998V152H123.998V148Z" fill="#79D47D"/>
<path d="M127.998 148H131.998V152H127.998V148Z" fill="#79D47D"/>
<path d="M132 144.001H136V148.001H132V144.001Z" fill="#1CC670"/>
<path d="M136.002 144.001H140.002V148.001H136.002V144.001Z" fill="#00BD69"/>
<path d="M16 152.001H20V156.001H16V152.001Z" fill="#008441"/>
<path d="M24 148.001H28V152.001H24V148.001Z" fill="#00BD68"/>
<path d="M32 148.001L36 148.001L36 152.001H32V148.001Z" fill="#6ED27C"/>
<path d="M36 148.001H40V152.001H36L36 148.001Z" fill="#79D47D"/>
<path d="M40 148.001H44V152.001H40V148.001Z" fill="#79D47D"/>
<path d="M44 148.001H48V152.001H44V148.001Z" fill="#79D47D"/>
<path d="M48 148.001H52V152.001H48V148.001Z" fill="#79D47D"/>
<path d="M52 148.001H56V152.001H52V148.001Z" fill="#79D47D"/>
<path d="M55.9978 148.001H59.9978V152.001H55.9978V148.001Z" fill="#79D47D"/>
<path d="M60 148.001H64V152.001H60V148.001Z" fill="#79D47D"/>
<path d="M64 148.001H68V152.001H64V148.001Z" fill="#79D47D"/>
<path d="M68.0022 148.001H72.0022V152.001H68.0022V148.001Z" fill="#79D47D"/>
<path d="M72.0022 148.001H76.0022V152.001H72.0022V148.001Z" fill="#79D47D"/>
<path d="M76 148.001H80V152.001H76V148.001Z" fill="#78D47C"/>
<path d="M80 148.001H84V152.001H80V148.001Z" fill="#00C069"/>
<path d="M84 148.001H88V152.001H84V148.001Z" fill="#00BE69"/>
<path d="M88 148.001H92V152.001H88V148.001Z" fill="#00C46F"/>
<path d="M92 148.001H96V152.001H92V148.001Z" fill="#78D57D"/>
<path d="M96 148.001H100V152.001H96V148.001Z" fill="#79D47D"/>
<path d="M100.002 148.001H104.002V152.001H100.002V148.001Z" fill="#66D17A"/>
<path d="M104 148.001H108V152.001H104V148.001Z" fill="#6FD27C"/>
<path d="M108 148.001H112L112 152L108 152.001V148.001Z" fill="#4FCD76"/>
<path d="M112 152H116V156H112V152Z" fill="#00C06A"/>
<path d="M115.998 152H119.998V156H115.998V152Z" fill="#00C169"/>
<path d="M120 152H124V156H120V152Z" fill="#79D47D"/>
<path d="M124 152H128V156H124V152Z" fill="#69D37A"/>
<path d="M132 156H136V160H132V156Z" fill="#00BF69"/>
<path d="M132 152H136V156H132V152Z" fill="#00BF69"/>
<path d="M128 152H132V156L128 156V152Z" fill="#00BF69"/>
<path d="M128 156L132 156V160H128L128 156Z" fill="#00BF69"/>
<path d="M132 148.001H136L136 152H132V148.001Z" fill="#00BE67"/>
<path d="M136.002 152.001H140.002V156.001H136.002V152.001Z" fill="#00BD69"/>
<path d="M136 156H140V160H136V156Z" fill="#00BD69"/>
<path d="M136.002 148.001H140.002V152.001H136.002V148.001Z" fill="#00BD69"/>
<path d="M140.002 148.001L144.002 148.001V152.001L140.002 152.001V148.001Z" fill="#008441"/>
<path d="M140 144H144V148H140V144Z" fill="#008441"/>
<path d="M16 156.001H20L20 160.001H16L16 156.001Z" fill="#008441"/>
<path d="M19.9978 152.001H23.9978V156.001H19.9978V152.001Z" fill="#00BD68"/>
<path d="M24 152.001H28V156.001H24V152.001Z" fill="#00BD68"/>
<path d="M32 152.001H36V156.001H32V152.001Z" fill="#79D47D"/>
<path d="M36 152.001H40V156.001H36V152.001Z" fill="#79D47D"/>
<path d="M40 152.001H44V156.001H40V152.001Z" fill="#79D47D"/>
<path d="M44 152.001H48V156.001H44V152.001Z" fill="#79D47D"/>
<path d="M48 152.001H52V156.001H48V152.001Z" fill="#79D47D"/>
<path d="M52 152.001H56V156.001H52V152.001Z" fill="#79D47D"/>
<path d="M55.9978 152.001H59.9978V156.001H55.9978V152.001Z" fill="#79D47D"/>
<path d="M60 152.001H64V156.001H60V152.001Z" fill="#75D37E"/>
<path d="M64 152.001H68V156.001H64V152.001Z" fill="#79D47D"/>
<path d="M68.0022 152.001H72.0022V156.001H68.0022V152.001Z" fill="#79D47D"/>
<path d="M72.0022 152.001H76.0022V156.001H72.0022V152.001Z" fill="#79D47D"/>
<path d="M76 152.001H80V156.001H76V152.001Z" fill="#28C672"/>
<path d="M80 152.001H84V156.001H80V152.001Z" fill="#00BD69"/>
<path d="M84 152.001H88V156.001H84V152.001Z" fill="#00BE69"/>
<path d="M88 152.001H92V156.001H88V152.001Z" fill="#00BD69"/>
<path d="M92 152.001H96V156.001H92V152.001Z" fill="#00BE69"/>
<path d="M96 152.001H100V156.001H96V152.001Z" fill="#00BF6A"/>
<path d="M100.002 152.001H104.002V156.001H100.002V152.001Z" fill="#00C069"/>
<path d="M104 152.001H108V156.001H104V152.001Z" fill="#00C06A"/>
<path d="M108 152.001L112 152.001V156.001H108V152.001Z" fill="#00C26B"/>
<path d="M112 156H116V160H112V156Z" fill="#008441"/>
<path d="M115.998 156H119.998V160H115.998V156Z" fill="#00BD69"/>
<path d="M120 156H124V160H120V156Z" fill="#00BE69"/>
<path d="M124 156H128L128 160H124V156Z" fill="#00BF69"/>
<path d="M132 160H136V164H132V160Z" fill="#00BE67"/>
<path d="M136 164L140 164V168H136L136 164Z" fill="#008D46"/>
<path d="M132 168L136 168L136 172H132V168Z" fill="#008441"/>
<path d="M136 160H140L140 164L136 164V160Z" fill="#008441"/>
<path d="M140.002 152.001L144.002 152.001V156.001L140.002 156.001V152.001Z" fill="#008540"/>
<path d="M16 160.001H20V164.001H16V160.001Z" fill="#008942"/>
<path d="M19.9978 156.001H23.9978V160.001H19.9978V156.001Z" fill="#00BF68"/>
<path d="M32 156.001H36V160.001H32V156.001Z" fill="#79D47D"/>
<path d="M28 140.001L32 140.001V144.001L28 144.001V140.001Z" fill="#6ED27C"/>
<path d="M28 144.001L32 144.001V148.001L28 148.001V144.001Z" fill="#79D47D"/>
<path d="M32 144.001H36L36 148.001L32 148.001V144.001Z" fill="#79D47D"/>
<path d="M28 148.001L32 148.001V152.001H28V148.001Z" fill="#79D47D"/>
<path d="M36 156.001H40V160.001H36V156.001Z" fill="#79D47D"/>
<path d="M40 156.001H44V160.001H40V156.001Z" fill="#79D47D"/>
<path d="M44 156.001H48V160.001H44V156.001Z" fill="#79D47D"/>
<path d="M48 156.001H52V160.001H48V156.001Z" fill="#67D17B"/>
<path d="M52 156.001H56V160.001H52V156.001Z" fill="#00C169"/>
<path d="M55.9978 156.001H59.9978V160.001H55.9978V156.001Z" fill="#00C069"/>
<path d="M60 156.001H64V160.001H60V156.001Z" fill="#00C16B"/>
<path d="M64 156.001H68V160.001H64V156.001Z" fill="#73D27C"/>
<path d="M68.0022 156.001H72.0022V160.001H68.0022V156.001Z" fill="#79D47D"/>
<path d="M72.0022 156.001H76.0022V160.001H72.0022V156.001Z" fill="#73D27C"/>
<path d="M76 156.001H80V160.001H76V156.001Z" fill="#00BD68"/>
<path d="M80 156.001H84V160.001H80V156.001Z" fill="#008F46"/>
<path d="M84 156.001H88V160.001H84V156.001Z" fill="#2B5B3C"/>
<path d="M88 156.001H92V160.001H88V156.001Z" fill="#008641"/>
<path d="M92 156.001H96V160.001H92V156.001Z" fill="#00BD68"/>
<path d="M96 156.001H100V160.001H96V156.001Z" fill="#00BE69"/>
<path d="M100.002 156.001H104.002V160.001H100.002V156.001Z" fill="#008441"/>
<path d="M104 156.001H108V160.001H104V156.001Z" fill="#00A252"/>
<path d="M108 156.001H112L112 160L108 160.001V156.001Z" fill="#008842"/>
<path d="M116 160H120V164.001H116L116 160Z" fill="#008540"/>
<path d="M120 160H124V164L120 164.001V160Z" fill="#00BD69"/>
<path d="M124 160H128L128 164H124V160Z" fill="#00BE67"/>
<path d="M128 160H132V164L128 164L128 160Z" fill="#008A46"/>
<path d="M132 164H136L136 168L132 168V164Z" fill="#008A46"/>
<path d="M19.9978 160.001H23.9978V164.001H19.9978V160.001Z" fill="#00BE67"/>
<path d="M24 160.001H28V164.001H24V160.001Z" fill="#00C16A"/>
<path d="M32 160.001H36V164.001H32V160.001Z" fill="#79D47D"/>
<path d="M28 152.001H32V156.001L28 156.001V152.001Z" fill="#79D47D"/>
<path d="M28 156.001L32 156.001V160.001L28 160.001V156.001Z" fill="#79D47D"/>
<path d="M28 160.001L32 160.001V164.001L28 164.001V160.001Z" fill="#79D47D"/>
<path d="M36 160.001H40V164.001H36V160.001Z" fill="#79D47D"/>
<path d="M40 160.001H44V164.001H40V160.001Z" fill="#79D47D"/>
<path d="M44 160.001H48V164.001H44V160.001Z" fill="#78D47D"/>
<path d="M48 160.001H52V164.001H48V160.001Z" fill="#00C06A"/>
<path d="M52 160.001H56V164.001H52V160.001Z" fill="#00C069"/>
<path d="M55.9978 160.001H59.9978V164.001H55.9978V160.001Z" fill="#007F3B"/>
<path d="M60 160.001H64V164.001H60V160.001Z" fill="#00BF69"/>
<path d="M64 160.001H68V164.001H64V160.001Z" fill="#00BE69"/>
<path d="M68.0022 160.001H72.0022V164.001H68.0022V160.001Z" fill="#00BD69"/>
<path d="M72.0022 160.001H76.0022V164.001H72.0022V160.001Z" fill="#00BD68"/>
<path d="M76 160.001H80V164.001H76V160.001Z" fill="#00BD69"/>
<path d="M80 160.001H84V164.001H80V160.001Z" fill="#00833E"/>
<path d="M84 160.001H88V164.001H84V160.001Z" fill="#3A2F28"/>
<path d="M88 160.001H92V164.001H88V160.001Z" fill="#00BD67"/>
<path d="M92 160.001H96V164.001H92V160.001Z" fill="#00984B"/>
<path d="M96 160.001H100V164.001H96V160.001Z" fill="#00BE67"/>
<path d="M100.002 160.001H104.002V164.001H100.002V160.001Z" fill="#00B96A"/>
<path d="M115.998 164H119.998V168H115.998V164Z" fill="#008542"/>
<path d="M120 164.001L124 164V168H120V164.001Z" fill="#00BD66"/>
<path d="M123.998 164H127.998V168H123.998V164Z" fill="#008441"/>
<path d="M20 168H24V172H20V168Z" fill="#00BC69"/>
<path d="M19.9978 164.001H23.9978L23.9981 168.001H19.998L19.9978 164.001Z" fill="#00BC69"/>
<path d="M24 164.001H28V168.001L24 168L24 164.001Z" fill="#00C16B"/>
<path d="M32 164.001H36V168.001H32V164.001Z" fill="#79D47D"/>
<path d="M28 164.001L32 164.001V168.001L28 168.001V164.001Z" fill="#79D47D"/>
<path d="M36 164.001H40V168.001H36V164.001Z" fill="#79D47D"/>
<path d="M40 164.001H44V168.001H40V164.001Z" fill="#79D47D"/>
<path d="M44 164.001H48V168.001H44V164.001Z" fill="#00C16B"/>
<path d="M48 164.001H52V168.001H48V164.001Z" fill="#00BD67"/>
<path d="M52 164.001H56V168.001H52V164.001Z" fill="#008441"/>
<path d="M55.9978 164.001H59.9978V168.001H55.9978V164.001Z" fill="#3A2F28"/>
<path d="M60 164.001H64V168.001H60V164.001Z" fill="#008641"/>
<path d="M64 164.001H68V168.001H64V164.001Z" fill="#00BD69"/>
<path d="M68.0022 164.001H72.0022V168.001H68.0022V164.001Z" fill="#007F3B"/>
<path d="M72.0022 164.001H76.0022V168.001H72.0022V164.001Z" fill="#00BD69"/>
<path d="M76 164.001H80V168.001H76V164.001Z" fill="#009248"/>
<path d="M80 164.001H84V168.001H80V164.001Z" fill="#634E3D"/>
<path d="M84 164.001H88V168.001H84V164.001Z" fill="#3C3028"/>
<path d="M92 164.001H96V168.001H92L92 164.001Z" fill="#008540"/>
<path d="M96 164.001H100V168.001H96V164.001Z" fill="#008441"/>
<path d="M16 168H20V172H16V168Z" fill="#008441"/>
<path d="M16 164.001H20L20 168H16L16 164.001Z" fill="#008441"/>
<path d="M24 168.001L28 168.001V172.001H24V168.001Z" fill="#00BE69"/>
<path d="M28 168.001L32 168.001L32 172.001H28V168.001Z" fill="#00C36B"/>
<path d="M32 168.001H36V172.001H32L32 168.001Z" fill="#00C56F"/>
<path d="M36 168.001H40V172.001H36V168.001Z" fill="#20C571"/>
<path d="M40 168.001H44V172.001H40V168.001Z" fill="#48CB75"/>
<path d="M48 168.001H52V172.001H48L48 168.001Z" fill="#00BE69"/>
<path d="M44 168.001H48L48 172.001L44 172.001V168.001Z" fill="#00BE69"/>
<path d="M52 168.001H56V172.001H52V168.001Z" fill="#008441"/>
<path d="M55.9978 168.001H59.9978V172.001H55.9978V168.001Z" fill="#3A2F28"/>
<path d="M60 168.001H64V172.001H60V168.001Z" fill="#008441"/>
<path d="M64 168.001H68V172.001H64V168.001Z" fill="#008441"/>
<path d="M68.0022 168.001H72.0022V172.001H68.0022V168.001Z" fill="#998779"/>
<path d="M72.0022 168.001H76.0022V172.001H72.0022V168.001Z" fill="#008441"/>
<path d="M76 168.001H80V172.001H76V168.001Z" fill="#008441"/>
<path d="M80 168.001H84V172.001H80V168.001Z" fill="#644F3E"/>
<path d="M84 168.001H88V172.001H84V168.001Z" fill="#3A2F28"/>
<path d="M96 168.001H100V172.001H96L96 168.001Z" fill="#008640"/>
<path d="M100.002 164.001H104.002V168.001H100.002V164.001Z" fill="#008640"/>
<path d="M104 160.001H108V164.001H104V160.001Z" fill="#008640"/>
<path d="M119.998 168H123.998L123.998 172H119.998L119.998 168Z" fill="#008640"/>
<path d="M16 172H20L20 176H16V172Z" fill="#008441"/>
<path d="M24 172.001H28V176.001H24V172.001Z" fill="#00BE67"/>
<path d="M28 172.001H32V176.001H28V172.001Z" fill="#00C16B"/>
<path d="M32 172.001H36V176.001H32V172.001Z" fill="#00C169"/>
<path d="M36 172.001H40V176.001H36V172.001Z" fill="#00BF6A"/>
<path d="M40 172.001H44V176.001H40V172.001Z" fill="#00C36C"/>
<path d="M4 108H8.00003V112H4V108Z" fill="#008540"/>
<path d="M0 112L4 112L4.00003 116H0V112Z" fill="#008540"/>
<path d="M55.9978 172.001H59.9978V176.001H55.9978V172.001Z" fill="#393027"/>
<path d="M60 172.001H64V176.001H60V172.001Z" fill="#634E3E"/>
<path d="M64 172.001H68V176.001H64V172.001Z" fill="#008441"/>
<path d="M68.0022 172.001H72.0022V176.001H68.0022V172.001Z" fill="#998779"/>
<path d="M72.0022 172.001H76.0022V176.001H72.0022V172.001Z" fill="#998779"/>
<path d="M76 172.001H80V176.001H76V172.001Z" fill="#958275"/>
<path d="M80 172.001H84V176.001H80V172.001Z" fill="#634F3E"/>
<path d="M84 172.001H88V176.001H84V172.001Z" fill="#44352D"/>
<path d="M19.9978 176.001H23.9978V180.001H19.9978V176.001Z" fill="#008640"/>
<path d="M28 176H32V180H28V176Z" fill="#008640"/>
<path d="M28 180H32V184H28V180Z" fill="#008640"/>
<path d="M20 172H24V176H20L20 172Z" fill="#008441"/>
<path d="M140 96H144V100H140V96Z" fill="#008441"/>
<path d="M24 180L28 180V184H24V180Z" fill="#008640"/>
<path d="M24 176L28 176V180L24 180L24 176Z" fill="#00BE69"/>
<path d="M32 176H36V180H32V176Z" fill="#008D45"/>
<path d="M36 176.001H40V180.001H36L36 176.001Z" fill="#00C16B"/>
<path d="M40 176.001H44V180.001H40V176.001Z" fill="#00BE67"/>
<path d="M44 172L48 172.001L48 176H44V172Z" fill="#008E46"/>
<path d="M48 172.001H52L52 176H48L48 172.001Z" fill="#008640"/>
<path d="M52 172.001H56V176.001L52 176L52 172.001Z" fill="#008640"/>
<path d="M60 176.001H64V180.001H60V176.001Z" fill="#634E3E"/>
<path d="M64 176.001H68V180.001H64V176.001Z" fill="#998678"/>
<path d="M68.0022 176.001H72.0022V180.001H68.0022V176.001Z" fill="#685545"/>
<path d="M72.0022 176.001H76.0022V180.001H72.0022V176.001Z" fill="#998779"/>
<path d="M76 176.001H80V180.001H76V176.001Z" fill="#998779"/>
<path d="M80 176.001H84V180.001H80V176.001Z" fill="#776353"/>
<path d="M84 176.001H88V180.001H84V176.001Z" fill="#634D3D"/>
<path d="M88 176.001L92 176.001V180.001H88V176.001Z" fill="#3A2F28"/>
<path d="M144 92H148V96L144 96L144 92Z" fill="#008441"/>
<path d="M40 180.001H44V184.001H40L40 180.001Z" fill="#008441"/>
<path d="M44 176H48V180H44V176Z" fill="#00823D"/>
<path d="M60 180.001H64V184.001H60V180.001Z" fill="#624D3D"/>
<path d="M64 180.001H68V184.001H64V180.001Z" fill="#968476"/>
<path d="M68.0022 180.001H72.0022V184.001H68.0022V180.001Z" fill="#998779"/>
<path d="M72.0022 180.001H76.0022V184.001H72.0022V180.001Z" fill="#998779"/>
<path d="M76 180.001H80V184.001H76V180.001Z" fill="#998779"/>
<path d="M80 180.001H84V184.001H80V180.001Z" fill="#907E71"/>
<path d="M84 180.001H88V184.001H84V180.001Z" fill="#634D3D"/>
<path d="M88 180.001H92V184.001H88V180.001Z" fill="#3A2F28"/>
<path d="M60 184.001H64V188.001H60V184.001Z" fill="#42352C"/>
<path d="M64 184.001H68V188.001H64V184.001Z" fill="#917F71"/>
<path d="M68.0022 184.001H72.0022V188.001H68.0022V184.001Z" fill="#998779"/>
<path d="M72.0022 184.001H76.0022V188.001H72.0022V184.001Z" fill="#6E5A4A"/>
<path d="M76 184.001H80V188.001H76V184.001Z" fill="#998779"/>
<path d="M80 184.001H84V188.001H80V184.001Z" fill="#988678"/>
<path d="M84 184.001H88V188.001H84V184.001Z" fill="#624D3D"/>
<path d="M88 184.001H92V188.001H88V184.001Z" fill="#3A2F28"/>
<path d="M60 188.001H64V192.001H60V188.001Z" fill="#493930"/>
<path d="M64 188.001H68V192.001H64V188.001Z" fill="#634D3D"/>
<path d="M68.0022 188.001H72.0022V192.001H68.0022V188.001Z" fill="#998779"/>
<path d="M72.0022 188.001H76.0022V192.001H72.0022V188.001Z" fill="#644F3E"/>
<path d="M76 188.001H80V192.001H76V188.001Z" fill="#695343"/>
<path d="M80 188.001H84V192.001H80V188.001Z" fill="#998779"/>
<path d="M84 188.001H88V192.001H84V188.001Z" fill="#675243"/>
<path d="M88 188.001H92V192.001H88V188.001Z" fill="#372D26"/>
<path d="M60 192.001H64V196.001H60V192.001Z" fill="#4E3E32"/>
<path d="M64 192.001H68V196.001H64V192.001Z" fill="#917E70"/>
<path d="M68.0022 192.001H72.0022V196.001H68.0022V192.001Z" fill="#675242"/>
<path d="M72.0022 192.001H76.0022V196.001H72.0022V192.001Z" fill="#998779"/>
<path d="M76 192.001H80V196.001H76V192.001Z" fill="#998779"/>
<path d="M80 192.001H84V196.001H80V192.001Z" fill="#8F7D6E"/>
<path d="M84 192.001H88V196.001H84V192.001Z" fill="#837161"/>
<path d="M88 192.001H92V196.001H88V192.001Z" fill="#3A2F28"/>
<path d="M60 196.001H64V200.002H60V196.001Z" fill="#665141"/>
<path d="M64 196.001H68V200.002H64V196.001Z" fill="#938072"/>
<path d="M68.0022 196.001H72.0022V200.002H68.0022V196.001Z" fill="#998779"/>
<path d="M72.0022 196.001H76.0022V200.002H72.0022V196.001Z" fill="#998779"/>
<path d="M76 196.001H80V200.002H76V196.001Z" fill="#998779"/>
<path d="M80 196.001H84V200.002H80V196.001Z" fill="#998779"/>
<path d="M84 196.001H88V200.002H84V196.001Z" fill="#968476"/>
<path d="M88 196.001H92V200.002H88V196.001Z" fill="#695545"/>
<path d="M92 196.001L96 196.002V200.002H92V196.001Z" fill="#3A2F28"/>
<path d="M55.9978 200.001H59.9978V204.001H55.9978V200.001Z" fill="#3A2F28"/>
<path d="M60 200.002H64V204.001H60V200.002Z" fill="#675242"/>
<path d="M64 200.002H68V204.001H64V200.002Z" fill="#988679"/>
<path d="M68.0022 200.002H72.0022V204.001H68.0022V200.002Z" fill="#998779"/>
<path d="M72.0022 200.002H76.0022V204.001H72.0022V200.002Z" fill="#998779"/>
<path d="M76 200.002H80V204.001H76V200.002Z" fill="#998779"/>
<path d="M80 200.002H84V204.001H80V200.002Z" fill="#998779"/>
<path d="M84 200.002H88V204.001H84V200.002Z" fill="#998779"/>
<path d="M88 200.002H92V204.001H88V200.002Z" fill="#897467"/>
<path d="M92 200.002H96V204.001H92V200.002Z" fill="#644F3F"/>
<path d="M96 200.002L100 200.001V204.001H96V200.002Z" fill="#3C3128"/>
<path d="M55.9978 204.001H59.9978V208.001H55.9978V204.001Z" fill="#42322A"/>
<path d="M60 204.001H64V208.001H60V204.001Z" fill="#634E3E"/>
<path d="M64 204.001H68V208.001H64V204.001Z" fill="#998779"/>
<path d="M68.0022 204.001H72.0022V208.001H68.0022V204.001Z" fill="#998779"/>
<path d="M72.0022 204.001H76.0022V208.001H72.0022V204.001Z" fill="#998779"/>
<path d="M76 204.001H80V208.001H76V204.001Z" fill="#9A887A"/>
<path d="M80 204.001H84V208.001H80V204.001Z" fill="#998779"/>
<path d="M84 204.001H88V208.001H84V204.001Z" fill="#998779"/>
<path d="M88 204.001H92V208.001H88V204.001Z" fill="#998779"/>
<path d="M92 204.001H96V208.001H92V204.001Z" fill="#766153"/>
<path d="M96 204.001H100V208.001H96V204.001Z" fill="#3C3128"/>
<path d="M55.9978 208.001H59.9978V212.001H55.9978V208.001Z" fill="#3A2F28"/>
<path d="M60 208.001H64V212.001H60V208.001Z" fill="#634E3E"/>
<path d="M64 208.001H68V212.001H64V208.001Z" fill="#998779"/>
<path d="M68.0022 208.001H72.0022V212.001H68.0022V208.001Z" fill="#998779"/>
<path d="M72.0022 208.001H76.0022V212.001H72.0022V208.001Z" fill="#998779"/>
<path d="M76 208.001H80V212.001H76V208.001Z" fill="#998779"/>
<path d="M80 208.001H84V212.001H80V208.001Z" fill="#998779"/>
<path d="M84 208.001H88V212.001H84V208.001Z" fill="#998779"/>
<path d="M88 208.001H92V212.001H88V208.001Z" fill="#998779"/>
<path d="M92 208.001H96V212.001H92V208.001Z" fill="#988679"/>
<path d="M96 208.001H100V212.001H96V208.001Z" fill="#715D4D"/>
<path d="M100.002 208.001H104.002V212.001H100.002V208.001Z" fill="#3C3028"/>
<path d="M104 208.001H108V212.001H104V208.001Z" fill="#3C3028"/>
<path d="M55.9978 212.001H59.9978V216.002H55.9978V212.001Z" fill="#3A2F28"/>
<path d="M60 212.001H64V216.002H60V212.001Z" fill="#766353"/>
<path d="M56 216H60V220H56V216Z" fill="#766353"/>
<path d="M64 212.001H68V216.002H64V212.001Z" fill="#998779"/>
<path d="M68.0022 212.001H72.0022V216.002H68.0022V212.001Z" fill="#998779"/>
<path d="M72.0022 212.001H76.0022V216.002H72.0022V212.001Z" fill="#998779"/>
<path d="M76 212.001H80V216.002H76V212.001Z" fill="#998779"/>
<path d="M80 212.001H84V216.002H80V212.001Z" fill="#998779"/>
<path d="M84 212.001H88V216.002H84V212.001Z" fill="#998779"/>
<path d="M88 212.001H92V216.002H88V212.001Z" fill="#998779"/>
<path d="M92 212.001H96V216.002H92V212.001Z" fill="#998779"/>
<path d="M96 212.001H100V216.002H96V212.001Z" fill="#988679"/>
<path d="M100.002 212.001H104.002V216.002H100.002V212.001Z" fill="#7C6A5B"/>
<path d="M104 212.001H108V216.002H104V212.001Z" fill="#3C3028"/>
<path d="M108 212.001L112 212.002V216.002H108V212.001Z" fill="#3E3029"/>
<path d="M112.002 212.002H116.002V216.002H112.002V212.002Z" fill="#3A2F28"/>
<path d="M116 212.002H120V216.002H116V212.002Z" fill="#3A2F28"/>
<path d="M120 212.002H124V216.002H120V212.002Z" fill="#3A2F28"/>
<path d="M76 224H80V228H76V224Z" fill="#665140"/>
<path d="M52 212H56L56 216L52 216V212Z" fill="#3E3029"/>
<path d="M60 216.002H64V220.001H60V216.002Z" fill="#968476"/>
<path d="M64 216.002H68V220.001H64V216.002Z" fill="#998779"/>
<path d="M68.0022 216.002H72.0022V220.001H68.0022V216.002Z" fill="#998779"/>
<path d="M72.0022 216.002H76.0022V220.001H72.0022V216.002Z" fill="#998779"/>
<path d="M76 216.002H80V220.001H76V216.002Z" fill="#998779"/>
<path d="M80 216.002H84V220.001H80V216.002Z" fill="#998779"/>
<path d="M84 216.002H88V220.001H84V216.002Z" fill="#998779"/>
<path d="M88 216.002H92V220.001H88V216.002Z" fill="#998779"/>
<path d="M92 216.002H96V220.001H92V216.002Z" fill="#998779"/>
<path d="M96 216.002H100V220.001H96V216.002Z" fill="#998779"/>
<path d="M100.002 216.002H104.002V220.001H100.002V216.002Z" fill="#998779"/>
<path d="M104 216.002H108V220.001H104V216.002Z" fill="#917E70"/>
<path d="M108 216.002H112V220.001H108V216.002Z" fill="#826F5F"/>
<path d="M112.002 216.002H116.002V220.001H112.002V216.002Z" fill="#675341"/>
<path d="M116 216.002H120V220.001H116V216.002Z" fill="#6D5949"/>
<path d="M120 216.002H124V220.001H120V216.002Z" fill="#725F50"/>
<path d="M124 216.002L128 216.001V220.001H124V216.002Z" fill="#715D4D"/>
<path d="M128 216.001H132V220.001H128V216.001Z" fill="#3A2F28"/>
<path d="M136.002 216.001H140.002V220.001H136.002V216.001Z" fill="#3A2F28"/>
<path d="M132 216H136V220H132V216Z" fill="#3A2F28"/>
<path d="M140.002 216.001H144.002V220.001H140.002V216.001Z" fill="#3A2F28"/>
<path d="M48 216L52 216L52 220H48V216Z" fill="#3F332C"/>
<path d="M84 220.001H88V224.001H84L84 220.001Z" fill="#7C685A"/>
<path d="M88 220.001H92V224.001H88V220.001Z" fill="#796555"/>
<path d="M92 220.001H96V224.001H92V220.001Z" fill="#665141"/>
<path d="M96 220.001H100V224.001H96V220.001Z" fill="#654F3F"/>
<path d="M100.002 220.001H104.002V224.001H100.002V220.001Z" fill="#6E5A4A"/>
<path d="M104 220.001H108V224.001H104V220.001Z" fill="#736050"/>
<path d="M108 220.001H112V224.001H108V220.001Z" fill="#7A6557"/>
<path d="M112.002 220.001H116.002V224.001H112.002V220.001Z" fill="#766253"/>
<path d="M116 220.001H120V224.001H116V220.001Z" fill="#726050"/>
<path d="M120 220.001H124V224.001H120V220.001Z" fill="#6C5646"/>
<path d="M124 220.001H128V224.001H124V220.001Z" fill="#675141"/>
<path d="M128 220.001H132V224.001H128V220.001Z" fill="#665141"/>
<path d="M132 220.001L136 220.001V224.001H132V220.001Z" fill="#644E3E"/>
<path d="M136.002 220.001H140.002V224.001H136.002V220.001Z" fill="#634E3E"/>
<path d="M140.002 220.001H144.002V224.001H140.002V220.001Z" fill="#624D3D"/>
<path d="M144 220.001H148V224.001H144V220.001Z" fill="#392E26"/>
<path d="M136 224H140V228H136V224Z" fill="#392E26"/>
<path d="M132 224H136V228H132V224Z" fill="#392E26"/>
<path d="M144 224H148V228H144V224Z" fill="#392E26"/>
<path d="M140 224H144V228H140V224Z" fill="#392E26"/>
<path d="M48 220H52V224H48V220Z" fill="#3A2F28"/>
<path d="M56 220H60V224H56V220Z" fill="#634E3D"/>
<path d="M52 216L56 216V220H52L52 216Z" fill="#634E3E"/>
<path d="M52 220H56V224H52V220Z" fill="#634E3D"/>
<path d="M60 220.001H64L64 224.001H60L60 220.001Z" fill="#645140"/>
<path d="M64 220.001H68L68 224.001H64L64 220.001Z" fill="#655242"/>
<path d="M68 220.001L72 220.001V224.001H68L68 220.001Z" fill="#644F3F"/>
<path d="M72 220.001L76 220.001L76 224.001H72V220.001Z" fill="#644F3F"/>
<path d="M76 220.001H80L80 224.001H76L76 220.001Z" fill="#64503F"/>
<path d="M80 220.001H84L84 224.001L80 224.001L80 220.001Z" fill="#665140"/>
<path d="M84 224.001H88V228.001H84V224.001Z" fill="#3A2F28"/>
<path d="M80 224H84V228H80V224Z" fill="#3A2F28"/>
<path d="M88 224.001H92V228.001H88V224.001Z" fill="#3A2F28"/>
<path d="M92 224.001H96V228.001H92V224.001Z" fill="#3C3129"/>
<path d="M96 224.001H100V228.001H96V224.001Z" fill="#3C3129"/>
<path d="M100.002 224.001H104.002V228.001H100.002V224.001Z" fill="#3A2F28"/>
<path d="M104 224.001H108V228.001H104V224.001Z" fill="#3A2F28"/>
<path d="M108 224.001H112V228.001H108V224.001Z" fill="#3A2F28"/>
<path d="M112.002 224.001H116.002V228.001H112.002V224.001Z" fill="#3A2F28"/>
<path d="M116 224.001H120V228.001H116V224.001Z" fill="#392C25"/>
<path d="M120 224.001H124V228.001H120V224.001Z" fill="#41322B"/>
<path d="M124 224.001H128V228.001H124V224.001Z" fill="#3A2F28"/>
<path d="M128 224.001H132V228.001H128V224.001Z" fill="#3C3129"/>
<path d="M52 224H56L56 228H52L52 224Z" fill="#382C25"/>
<path d="M56 224H60V228H56L56 224Z" fill="#3A2F27"/>
<path d="M60.002 224H64.002V228H60.002V224Z" fill="#524134"/>
<path d="M64.002 224H68.002V228H64.002V224Z" fill="#3A2F28"/>
<path d="M68.0039 224H72.0039V228H68.0039V224Z" fill="#3A2F28"/>
<path d="M72.0039 224H76.0039V228H72.0039V224Z" fill="#3D3127"/>
<path d="M132 112.001L136 112V116L132 116.001V112.001Z" fill="#008540"/>
<path d="M132 108.001L136 108.001L136 112L132 112.001V108.001Z" fill="#008540"/>
<path d="M52 16H56V20L52 20.0003V16Z" fill="#00BF69"/>
<path d="M48 20.0003H52L52 24H48V20.0003Z" fill="#00BF69"/>
<path d="M36 180.001H40L40 184.001L36 184.001V180.001Z" fill="#008640"/>
<path d="M24 156.001H28V160.001H24V156.001Z" fill="#00BD68"/>
<path d="M28 128.001H32L32 132.001L28 132.001V128.001Z" fill="#79D47D"/>
<path d="M28 136.001L32 136.001V140.001L28 140.001V136.001Z" fill="#79D47D"/>
<path d="M124 212H128V216H124V212Z" fill="#3A2F28"/>
</svg>
